<?xml version="1.0" encoding="UTF-8"?>
<svg width="253px" height="258px" viewBox="0 0 253 258" version="1.1" xmlns="http://www.w3.org/2000/svg" xmlns:xlink="http://www.w3.org/1999/xlink">
    <title>Logo</title>
    <g id="Logo" stroke="none" stroke-width="1" fill="none" fill-rule="evenodd">
        <polyline id="Fill-7" fill="#CAA557" points="227.9 209.365 217.459 237.164 212.18 237.164 201.699 209.365 206.58 209.365 214.82 232.485 223.1 209.365 227.9 209.365"></polyline>
        <polyline id="Fill-6" fill="#CAA557" points="167.539 213.044 167.539 221.204 177.141 221.204 177.141 224.924 167.539 224.924 167.539 233.444 178.34 233.444 178.34 237.164 162.98 237.164 162.98 209.325 178.34 209.325 178.34 213.044 167.539 213.044"></polyline>
        <polyline id="Fill-5" fill="#CAA557" points="129.78 233.485 139.18 233.485 139.18 237.164 125.22 237.164 125.22 209.365 129.78 209.365 129.78 233.485"></polyline>
        <path d="M91.459,232.225 C92.9,231.385 94.026,230.184 94.84,228.624 C95.653,227.065 96.06,225.258 96.06,223.204 C96.06,221.151 95.653,219.352 94.84,217.805 C94.026,216.258 92.9,215.071 91.459,214.244 C90.02,213.418 88.379,213.004 86.54,213.004 C84.7,213.004 83.06,213.418 81.62,214.244 C80.18,215.071 79.053,216.258 78.24,217.805 C77.426,219.352 77.02,221.151 77.02,223.204 C77.02,225.258 77.426,227.065 78.24,228.624 C79.053,230.184 80.18,231.385 81.62,232.225 C83.06,233.065 84.7,233.485 86.54,233.485 C88.379,233.485 90.02,233.065 91.459,232.225 Z M79.4,235.624 C77.226,234.411 75.506,232.718 74.24,230.544 C72.973,228.371 72.34,225.924 72.34,223.204 C72.34,220.485 72.973,218.044 74.24,215.885 C75.506,213.725 77.226,212.037 79.4,210.825 C81.573,209.612 83.953,209.004 86.54,209.004 C89.153,209.004 91.546,209.612 93.72,210.825 C95.893,212.037 97.606,213.725 98.86,215.885 C100.113,218.044 100.74,220.485 100.74,223.204 C100.74,225.924 100.113,228.371 98.86,230.544 C97.606,232.718 95.893,234.411 93.72,235.624 C91.546,236.838 89.153,237.444 86.54,237.444 C83.953,237.444 81.573,236.838 79.4,235.624 L79.4,235.624 Z" id="Fill-4" fill="#CAA557"></path>
        <polyline id="Fill-3" fill="#CAA557" points="40.661 233.485 50.061 233.485 50.061 237.164 36.101 237.164 36.101 209.365 40.661 209.365 40.661 233.485"></polyline>
        <path d="M122.077,152.97 C124.108,164.991 123.378,178.14 122.978,183.21 L120.138,183.21 L120.138,149.91 L121.487,149.91 C121.708,150.92 121.907,151.94 122.077,152.97" id="Fill-8" fill="#CAA557"></path>
        <path d="M133.868,149.91 L133.868,183.21 L130.688,183.21 C130.258,177.72 129.428,162.68 132.188,149.91 L133.868,149.91" id="Fill-9" fill="#CAA557"></path>
        <path d="M120.398,145.63 C120.288,145.48 120.168,145.321 120.048,145.17 C119.638,144.651 119.208,144.14 118.738,143.62 L118.728,143.611 C117.058,141.76 115.038,139.91 112.718,138.101 C112.678,138.06 112.628,138.031 112.578,137.99 C109.788,135.781 106.598,133.66 103.168,131.45 C99.168,128.87 94.858,126.17 90.468,123.1 C89.548,122.45 88.628,121.78 87.708,121.09 C86.028,119.83 84.348,118.48 82.708,117.02 C81.268,115.72 79.858,114.32 78.498,112.8 C76.018,109.93 73.738,106.64 71.948,102.98 C71.128,101.28 70.398,99.51 69.818,97.66 C69.608,97.01 69.408,96.35 69.238,95.69 C67.938,90.95 67.488,85.94 67.738,81.09 C67.758,80.58 67.798,80.07 67.838,79.56 C67.958,78.08 68.138,76.63 68.358,75.19 C69.008,71.03 70.038,67.04 71.278,63.28 C71.348,63.07 71.418,62.86 71.488,62.65 C72.068,60.93 72.688,59.26 73.348,57.63 C74.158,55.58 75.028,53.61 75.928,51.71 C76.838,49.77 77.788,47.9 78.758,46.11 C79.628,44.49 80.508,42.93 81.388,41.43 C82.438,39.64 83.498,37.94 84.528,36.32 C86.038,33.96 86.649,33.145 88.069,31.156 C88.83,30.085 89.091,29.828 89.801,28.868 L91.788,26.74 C91.008,27.86 90.208,29.04 89.378,30.3 C88.038,32.33 86.638,34.54 85.218,36.93 C84.888,37.47 84.568,38.04 84.238,38.6 C84.218,38.61 84.218,38.61 84.228,38.62 C83.878,39.2 83.548,39.8 83.208,40.4 C83.198,40.4 83.198,40.42 83.188,40.43 C82.328,41.95 81.468,43.53 80.628,45.18 C80.608,45.21 80.598,45.25 80.578,45.29 C80.348,45.7 80.138,46.13 79.928,46.56 C79.358,47.69 78.788,48.85 78.248,50.04 C77.318,52.03 76.428,54.09 75.588,56.24 C74.688,58.54 73.848,60.92 73.098,63.39 C72.768,64.47 72.458,65.57 72.178,66.68 C72.178,66.68 72.178,66.69 72.168,66.69 C72.128,66.85 72.088,67.01 72.048,67.17 C71.528,69.18 71.098,71.24 70.758,73.32 C70.578,74.44 70.428,75.57 70.308,76.71 C70.198,77.72 70.108,78.75 70.058,79.77 C69.928,82.19 69.978,84.63 70.238,87.03 L70.238,87.06 C70.268,87.27 70.288,87.48 70.318,87.68 C70.328,87.8 70.338,87.92 70.358,88.05 C70.468,88.99 70.618,89.91 70.818,90.83 C70.808,90.84 70.808,90.84 70.818,90.85 C71.178,92.76 71.688,94.64 72.338,96.44 C72.638,97.3 72.978,98.14 73.338,98.96 C74.388,101.32 75.668,103.51 77.118,105.54 C77.128,105.55 77.128,105.55 77.138,105.56 C78.238,107.13 79.428,108.58 80.708,109.96 C80.728,109.98 80.748,110 80.768,110.02 C81.208,110.49 81.668,110.94 82.128,111.38 C82.358,111.6 82.588,111.82 82.828,112.03 C83.018,112.82 83.268,113.62 83.578,114.44 C84.578,115.64 85.898,116.87 87.408,118.07 C88.758,119.15 90.268,120.22 91.848,121.23 C91.848,121.23 91.858,121.23 91.858,121.24 C94.368,122.89 97.048,124.43 99.518,125.73 C99.518,125.74 99.528,125.74 99.528,125.74 C100.568,126.311 101.568,126.83 102.508,127.311 C106.198,129.18 108.888,130.361 108.888,130.361 C110.278,130.88 111.538,131.611 112.678,132.54 C114.918,134.32 116.708,136.781 118.128,139.7 C118.138,139.7 118.138,139.71 118.138,139.71 L118.138,139.72 C118.258,139.981 118.388,140.241 118.508,140.51 C119.238,142.111 119.858,143.83 120.398,145.63" id="Fill-10" fill="#CAA557"></path>
        <path d="M85.374,19.868 L86.109,26.221 C88.34,30.131 88.842,32.52 86.212,34.329 C83.414,32.136 83.528,29.242 85.532,26.207 L85.374,19.868" id="Fill-11" fill="#CAA557"></path>
        <path d="M168.18,19.868 L167.445,26.221 C165.215,30.131 164.711,32.52 167.342,34.329 C170.141,32.136 170.025,29.242 168.021,26.207 L168.18,19.868" id="Fill-12" fill="#CAA557"></path>
        <path d="M75.041,22.471 L78.352,31.758 C82.69,36.161 84.226,39.489 81.494,44.229 C77.061,42.897 76.133,38.336 77.601,32.161 L75.041,22.471" id="Fill-13" fill="#CAA557"></path>
        <path d="M65.444,29.251 L69.795,41.451 C75.493,47.236 77.513,51.607 73.923,57.835 C68.098,56.086 66.88,50.094 68.807,41.981 L65.444,29.251" id="Fill-14" fill="#CAA557"></path>
        <path d="M94.058,62.205 L84.51,77.495 C73.62,82.369 68.735,87.493 71.241,98.866 C80.533,99.98 84.961,91.977 85.724,78.89 L94.058,62.205" id="Fill-15" fill="#CAA557"></path>
        <path d="M83.208,102.72 C82.817,105.38 82.548,107.52 82.368,109.09 C82.218,106.91 82.508,104.81 83.208,102.72" id="Fill-16" fill="#CAA557"></path>
        <path d="M87.407,118.07 C86.838,118.32 86.247,118.53 85.628,118.72 C84.768,117.24 84.088,115.82 83.577,114.44 C84.577,115.64 85.897,116.87 87.407,118.07" id="Fill-17" fill="#CAA557"></path>
        <path d="M46.679,92.49 L61.261,101.476 C75.011,101.981 82.113,105.499 82.931,119.373 C72.88,124.848 65.371,117.9 60.348,103.588 L46.679,92.49" id="Fill-18" fill="#CAA557"></path>
        <path d="M103.907,133.05 C95.138,144.68 84.228,141.35 73.118,128.611 L53.858,124.24 L73.278,125.8 C78.848,123.15 83.608,121.45 87.708,121.09 C89.168,120.96 90.548,121 91.848,121.23 C91.848,121.23 91.858,121.23 91.858,121.24 C94.368,122.89 97.048,124.43 99.518,125.73 C99.518,125.74 99.528,125.74 99.528,125.74 C100.838,127.241 102.048,129.13 103.168,131.45 C103.418,131.96 103.668,132.49 103.907,133.05" id="Fill-19" fill="#CAA557"></path>
        <path d="M121.844,152.952 C113.975,161.313 103.888,158.401 92.778,147.93 L72.378,145.7 L92.708,144.981 C100.788,140.021 107.258,137.34 112.718,138.101 C114.657,138.37 116.468,139.08 118.178,140.271 C118.288,140.351 118.397,140.42 118.508,140.51 C119.237,142.11 119.858,143.83 120.397,145.63 C120.798,146.97 121.157,148.37 121.458,149.79 C121.439,150.571 122.185,152.603 121.844,152.952" id="Fill-20" fill="#CAA557"></path>
        <path d="M120.397,145.63 C120.798,146.97 121.157,148.37 121.458,149.79 C120.178,147.88 119.278,145.821 118.737,143.62 L118.728,143.61 C118.458,142.53 118.268,141.42 118.178,140.271 C118.157,140.09 118.138,139.91 118.138,139.72 C118.258,139.981 118.388,140.241 118.508,140.51 C119.237,142.11 119.858,143.83 120.397,145.63" id="Fill-21" fill="#CAA557"></path>
        <path d="M112.678,132.54 C112.008,133.5 111.237,134.45 110.368,135.37 C106.657,133.01 104.098,130.37 102.508,127.311 C106.198,129.18 108.888,130.361 108.888,130.361 C110.278,130.88 111.538,131.611 112.678,132.54" id="Fill-22" fill="#CAA557"></path>
        <path d="M50.125,59.59 L58.313,72.969 C68.549,79.559 72.809,85.425 69.038,96.289 C59.706,95.889 56.227,87.245 56.952,74.155 L50.125,59.59" id="Fill-23" fill="#CAA557"></path>
        <path d="M60.194,38.755 L63.316,55.186 C61.052,66.208 61.694,72.507 69.271,75.724 C74.177,68.744 71.698,61.49 64.662,54.85 L60.194,38.755" id="Fill-24" fill="#CAA557"></path>
        <path d="M82.827,112.03 C83.018,112.82 83.268,113.62 83.577,114.44 C82.928,113.67 82.418,112.91 82.067,112.16 C82.067,112.16 82.088,111.9 82.128,111.38 C82.178,110.87 82.258,110.1 82.368,109.09 C82.428,110.06 82.588,111.04 82.827,112.03" id="Fill-25" fill="#0A0B09"></path>
        <path d="M85.629,118.725 C85.629,118.725 78.504,103.953 88.14,96.459 C88.14,96.459 78.501,102.913 78.5029997,112.801 L85.629,118.725" id="Fill-26" fill="#CAA557"></path>
        <path d="M152.613,14.36 C152.643,14.4 152.693,14.46 152.783,14.55 C152.703,14.45 152.643,14.39 152.613,14.36" id="Fill-27" fill="#CAA557"></path>
        <path d="M184.629,95.69 C184.459,96.35 184.258,97.01 184.049,97.66 C183.469,99.51 182.738,101.28 181.928,102.98 C180.129,106.64 177.848,109.93 175.369,112.8 C174.008,114.32 172.598,115.72 171.158,117.02 C169.518,118.48 167.838,119.83 166.158,121.09 C165.238,121.78 164.318,122.45 163.398,123.1 C159.008,126.17 154.699,128.87 150.699,131.45 C147.268,133.66 144.088,135.781 141.289,137.99 C141.238,138.031 141.188,138.06 141.148,138.101 C138.838,139.91 136.809,141.76 135.138,143.611 L135.128,143.62 C134.658,144.14 134.228,144.651 133.818,145.17 C133.697,145.321 133.588,145.48 133.468,145.63 C134.008,143.83 134.628,142.111 135.357,140.51 C135.478,140.241 135.607,139.981 135.728,139.72 L135.728,139.71 C135.728,139.71 135.728,139.7 135.738,139.7 C137.158,136.781 138.947,134.32 141.188,132.54 C142.338,131.611 143.598,130.88 144.979,130.361 C144.979,130.361 147.678,129.18 151.357,127.311 C152.299,126.83 153.299,126.311 154.338,125.74 C154.338,125.74 154.348,125.74 154.348,125.73 C156.818,124.43 159.508,122.89 162.008,121.24 C162.008,121.23 162.018,121.23 162.018,121.23 C163.598,120.22 165.107,119.15 166.459,118.07 C167.969,116.87 169.289,115.64 170.289,114.44 C170.598,113.62 170.848,112.82 171.039,112.03 C171.277,111.82 171.508,111.6 171.738,111.38 C172.199,110.94 172.658,110.49 173.098,110.02 C173.119,110 173.139,109.98 173.158,109.96 C174.438,108.58 175.629,107.13 176.729,105.56 C176.738,105.55 176.738,105.55 176.758,105.54 C178.199,103.51 179.479,101.32 180.527,98.96 C180.889,98.14 181.229,97.3 181.527,96.44 C182.178,94.64 182.688,92.76 183.049,90.85 C183.059,90.84 183.059,90.84 183.049,90.83 C183.258,89.91 183.398,88.99 183.508,88.05 C183.527,87.92 183.539,87.8 183.549,87.68 C183.588,87.48 183.598,87.27 183.629,87.06 L183.629,87.03 C183.889,84.63 183.938,82.19 183.809,79.77 C183.758,78.75 183.678,77.72 183.559,76.71 C183.438,75.57 183.289,74.44 183.107,73.32 C182.768,71.24 182.338,69.18 181.818,67.17 C181.777,67.01 181.738,66.85 181.699,66.69 C181.688,66.69 181.688,66.68 181.688,66.68 C181.408,65.57 181.098,64.47 180.768,63.39 C180.018,60.92 179.178,58.54 178.277,56.24 C177.438,54.09 176.549,52.03 175.619,50.04 C175.088,48.85 174.508,47.69 173.938,46.56 C173.729,46.13 173.518,45.7 173.289,45.29 C173.268,45.25 173.258,45.21 173.238,45.18 C172.398,43.53 171.539,41.95 170.678,40.43 C170.678,40.42 170.678,40.4 170.658,40.4 C170.318,39.8 169.988,39.2 169.639,38.62 C169.648,38.61 169.648,38.61 169.629,38.6 C169.299,38.04 168.979,37.47 168.648,36.93 C167.229,34.54 165.838,32.33 164.488,30.3 C163.658,29.04 162.857,27.86 162.078,26.74 L164.592,29.485 C165.332,30.485 164.859,29.719 165.65,30.839 C167.07,32.829 167.838,33.96 169.338,36.32 C170.369,37.94 171.428,39.64 172.479,41.43 C173.357,42.93 174.238,44.49 175.107,46.11 C176.088,47.9 177.027,49.77 177.938,51.71 C178.838,53.61 179.709,55.58 180.518,57.63 C181.178,59.26 181.799,60.93 182.379,62.65 C182.449,62.86 182.518,63.07 182.598,63.28 C183.838,67.04 184.857,71.03 185.508,75.19 C185.729,76.63 185.908,78.08 186.027,79.56 C186.068,80.07 186.107,80.58 186.129,81.09 C186.379,85.94 185.928,90.95 184.629,95.69" id="Fill-28" fill="#CAA557"></path>
        <path d="M179.848,25.28 L176.635,34.297 C172.422,38.572 170.93,41.803 173.582,46.405 C177.887,45.113 178.787,40.684 177.363,34.688 L179.848,25.28" id="Fill-29" fill="#CAA557"></path>
        <path d="M187.494,29.706 L183.262,41.572 C177.721,47.198 175.756,51.449 179.248,57.506 C184.912,55.805 186.096,49.977 184.223,42.087 L187.494,29.706" id="Fill-30" fill="#CAA557"></path>
        <path d="M161.051,63.72 L172.936,80.555 C183.631,84.121 185.135,87.493 182.629,98.866 C173.338,99.98 167.982,93.826 168.975,83.13 L161.051,63.72" id="Fill-31" fill="#CAA557"></path>
        <path d="M170.662,102.72 C171.053,105.38 171.322,107.52 171.504,109.09 C171.652,106.91 171.363,104.81 170.662,102.72" id="Fill-32" fill="#CAA557"></path>
        <path d="M166.463,118.07 C167.033,118.32 167.623,118.53 168.242,118.72 C169.104,117.24 169.783,115.82 170.293,114.44 C169.293,115.64 167.973,116.87 166.463,118.07" id="Fill-33" fill="#CAA557"></path>
        <path d="M207.193,92.49 L192.609,101.476 C178.859,101.981 171.758,105.499 170.941,119.373 C180.992,124.848 188.5,117.9 193.523,103.588 L207.193,92.49" id="Fill-34" fill="#CAA557"></path>
        <path d="M149.963,133.05 C158.732,144.68 169.643,141.35 180.754,128.611 L200.014,124.24 L180.594,125.8 C175.023,123.15 170.264,121.45 166.162,121.09 C164.703,120.96 163.322,121 162.023,121.23 C162.023,121.23 162.014,121.23 162.014,121.24 C159.504,122.89 156.822,124.43 154.354,125.73 C154.354,125.74 154.344,125.74 154.344,125.74 C153.033,127.241 151.822,129.13 150.703,131.45 C150.453,131.96 150.203,132.49 149.963,133.05" id="Fill-35" fill="#CAA557"></path>
        <path d="M131.935,153.108 C139.807,161.468 149.982,158.401 161.094,147.93 L181.492,145.7 L161.162,144.981 C153.084,140.021 146.613,137.34 141.152,138.101 C139.213,138.37 137.402,139.08 135.692,140.271 C135.583,140.351 135.472,140.42 135.362,140.51 C134.632,142.11 134.013,143.83 133.472,145.63 C133.072,146.97 132.531,148.263 132.231,149.683 C131.858,150.804 131.595,152.758 131.935,153.108" id="Fill-36" fill="#CAA557"></path>
        <path d="M133.472,145.63 C133.072,146.97 132.712,148.37 132.412,149.79 C133.692,147.88 134.593,145.821 135.132,143.62 L135.143,143.61 C135.412,142.53 135.603,141.42 135.692,140.271 C135.712,140.09 135.732,139.91 135.732,139.72 C135.612,139.981 135.482,140.241 135.362,140.51 C134.632,142.11 134.013,143.83 133.472,145.63" id="Fill-37" fill="#CAA557"></path>
        <path d="M141.193,132.54 C141.863,133.5 142.633,134.45 143.504,135.37 C147.213,133.01 149.773,130.37 151.363,127.311 C147.674,129.18 144.982,130.361 144.982,130.361 C143.594,130.88 142.334,131.611 141.193,132.54" id="Fill-38" fill="#CAA557"></path>
        <path d="M201.84,63.123 L194.438,75.216 C185.186,81.173 181.336,86.475 184.742,96.295 C193.178,95.934 196.324,88.12 195.668,76.288 L201.84,63.123" id="Fill-39" fill="#CAA557"></path>
        <path d="M193.041,40.858 L190.1,56.332 C192.23,66.713 191.625,72.645 184.49,75.675 C179.871,69.101 182.205,62.269 188.832,56.016 L193.041,40.858" id="Fill-40" fill="#CAA557"></path>
        <path d="M171.043,112.03 C170.854,112.82 170.604,113.62 170.293,114.44 C170.943,113.67 171.453,112.91 171.803,112.16 C171.803,112.16 171.783,111.9 171.742,111.38 C171.693,110.87 171.613,110.1 171.504,109.09 C171.443,110.06 171.283,111.04 171.043,112.03" id="Fill-41" fill="#0A0B09"></path>
        <path d="M168.242,118.725 C168.242,118.725 175.367,103.953 165.732,96.459 C165.732,96.459 175.369,102.913 175.369,112.801 L168.242,118.725" id="Fill-42" fill="#CAA557"></path>
        <path d="M95.93,34.29 C95.93,34.29 102.817,42.301 89.288,45.237 L89.265,42.974 C89.265,42.974 100.167,43.172 95.93,34.29" id="Fill-43" fill="#CAA557"></path>
        <path d="M93.631,27.087 C93.631,27.087 100.518,35.098 86.989,38.034 L86.966,35.772 C86.966,35.772 97.869,35.97 93.631,27.087" id="Fill-44" fill="#CAA557"></path>
        <path d="M91.795,43.62 C91.795,43.62 89.571,47.774 85.986,48.451 C82.402,49.128 78.816,46.072 78.816,46.072 C78.816,46.072 81.04,41.917 84.625,41.241 C88.209,40.563 91.795,43.62 91.795,43.62" id="Fill-45" fill="#CAA557"></path>
        <path d="M94.361,33.896 C94.361,33.896 93.783,37.654 91.235,39.132 C88.688,40.609 85.139,39.244 85.139,39.244 C85.139,39.244 85.717,35.485 88.265,34.008 C90.812,32.531 94.361,33.896 94.361,33.896" id="Fill-46" fill="#CAA557"></path>
        <path d="M86.736,53.814 C86.736,53.814 85.138,59 81.234,60.556 C77.332,62.111 72.604,59.447 72.604,59.447 C72.604,59.447 74.202,54.26 78.105,52.705 C82.008,51.149 86.736,53.814 86.736,53.814" id="Fill-47" fill="#CAA557"></path>
        <path d="M83.471,65.102 C83.471,65.102 83.569,71.887 79.526,75.242 C75.483,78.597 68.832,77.251 68.832,77.251 C68.832,77.251 68.733,70.466 72.777,67.11 C76.819,63.756 83.471,65.102 83.471,65.102" id="Fill-48" fill="#CAA557"></path>
        <path d="M98.1,42.825 C98.1,42.825 98.175,52.932 84.099,52.858 L85.447,55.403 C85.447,55.403 98.999,53.157 98.1,42.825" id="Fill-49" fill="#CAA557"></path>
        <polyline id="Fill-50" fill="#CAA557" points="80.917 69.143 95.192 54.58 79.381 67.941 80.917 69.143"></polyline>
        <path d="M157.943,34.29 C157.943,34.29 151.057,42.301 164.586,45.237 L164.607,42.974 C164.607,42.974 153.705,43.172 157.943,34.29" id="Fill-51" fill="#CAA557"></path>
        <path d="M160.242,27.087 C160.242,27.087 153.355,35.098 166.885,38.034 L166.906,35.772 C166.906,35.772 156.004,35.97 160.242,27.087" id="Fill-52" fill="#CAA557"></path>
        <path d="M162.078,43.62 C162.078,43.62 164.301,47.774 167.887,48.451 C171.471,49.128 175.057,46.072 175.057,46.072 C175.057,46.072 172.832,41.917 169.248,41.241 C165.664,40.563 162.078,43.62 162.078,43.62" id="Fill-53" fill="#CAA557"></path>
        <path d="M159.512,33.896 C159.512,33.896 160.09,37.654 162.637,39.132 C165.184,40.609 168.734,39.244 168.734,39.244 C168.734,39.244 168.156,35.485 165.607,34.008 C163.061,32.531 159.512,33.896 159.512,33.896" id="Fill-54" fill="#CAA557"></path>
        <path d="M167.137,53.814 C167.137,53.814 168.734,59 172.639,60.556 C176.541,62.111 181.27,59.447 181.27,59.447 C181.27,59.447 179.67,54.26 175.768,52.705 C171.865,51.149 167.137,53.814 167.137,53.814" id="Fill-55" fill="#CAA557"></path>
        <path d="M170.402,65.102 C170.402,65.102 170.305,71.887 174.348,75.242 C178.389,78.597 185.041,77.251 185.041,77.251 C185.041,77.251 185.139,70.466 181.096,67.11 C177.053,63.756 170.402,65.102 170.402,65.102" id="Fill-56" fill="#CAA557"></path>
        <path d="M155.773,42.825 C155.773,42.825 155.697,52.932 169.773,52.858 L168.426,55.403 C168.426,55.403 154.875,53.157 155.773,42.825" id="Fill-57" fill="#CAA557"></path>
        <polyline id="Fill-58" fill="#CAA557" points="172.955 69.143 158.68 54.58 174.492 67.941 172.955 69.143"></polyline>
    </g>
</svg>