<?xml version="1.0" encoding="UTF-8"?>
<svg width="161px" height="165px" viewBox="0 0 161 165" version="1.1" xmlns="http://www.w3.org/2000/svg" xmlns:xlink="http://www.w3.org/1999/xlink">
    <title>logo</title>
    <g id="Page-1" stroke="none" stroke-width="1" fill="none" fill-rule="evenodd">
        <g id="logo" fill="#000000" fill-rule="nonzero">
            <path d="M39.156,0.752 L39.891,7.105 C41.068,9.168 41.757,10.805 41.766,12.16 C41.795,12.118 41.821,12.082 41.852,12.039 C42.548667,11.058167 42.826035,10.760479 43.414306,9.978231 L43.583,9.752 L45.57,7.624 C44.79,8.744 43.99,9.924 43.16,11.184 C42.229139,12.594184 41.269325,14.091231 40.293965,15.675141 C40.771427,15.219845 41.333451,14.824433 41.984672,14.573025 C43.885999,13.838414 46.047209,14.524954 47.19855,15.01611 C48.602671,13.949633 49.388241,12.019763 48.368279,8.576818 C48.368279,8.576818 51.202211,13.172726 47.764291,16.078694 C47.287146,17.173531 46.129969,19.320947 44.117681,20.097719 C41.582269,21.076529 38.581438,19.530715 38.134775,19.287105 L38.02,19.484 C38,19.494 38,19.494 38.01,19.504 C37.66,20.084 37.33,20.684 36.99,21.284 C36.98,21.284 36.98,21.304 36.97,21.314 C36.793,21.627 36.617,21.953 36.44,22.271 C36.383,22.516 36.313,22.763 36.229,23.014 C36.883,22.603 37.609,22.275 38.407,22.124 C40.825,21.668 43.238,22.908 44.557,23.765 C47.348127,23.439648 52.783173,21.98091 49.84316,15.456721 L49.712,15.174 L49.719307,15.182643 C49.954924,15.463498 55.73612,22.51646 44.815,25.675 C43.878,26.958 42.119,28.891 39.769,29.335 C37.337,29.794 34.909,28.537 33.596,27.68 C33.065,28.737 32.533,29.815 32.03,30.924 C31.51,32.037 31.006,33.179 30.513,34.339 C30.935,34.042 31.392,33.786 31.887,33.589 C34.07,32.719 36.511,33.169 38.239,33.735 C51.38749,33.639082 51.864361,24.501996 51.881384,23.756271 L51.881964,23.720236 L51.882,23.717 L51.907321,24.061005 C52.386329,32.573244 42.929074,35.440906 40.05247,36.114543 L39.938,36.141 C39.169,37.795 37.601,40.41 35.017,41.44 C32.503,42.442 29.653,41.693 27.939,41.033 C27.572,42.098 27.214,43.174 26.88,44.274 C26.55,45.354 26.24,46.454 25.96,47.564 L25.95875,47.569 L25.95,47.574 L25.83,48.054 C25.756,48.34 25.698,48.634 25.627,48.922 C25.913,48.595 26.216,48.279 26.559,47.994 C29.784333,45.317286 34.66589,45.633781 36.509585,45.870841 L36.639,45.888 L48.975,35.464 L37.167,47.51 C36.946,49.707 36.156,53.763 33.308,56.126 C30.412,58.53 26.189,58.519 24.02,58.321 C23.944,59.096 23.878,59.877 23.84,60.654 C23.724444,62.805111 23.751111,64.972025 23.94107,67.112601 L24.02,67.914 L24.02,67.944 C24.034,68.044 24.046,68.14 24.058,68.24 C24.062,68.264 24.064,68.288 24.068,68.313 C24.078,68.396 24.088,68.483 24.1,68.564 C24.11,68.684 24.12,68.804 24.14,68.934 C24.25,69.874 24.4,70.794 24.6,71.714 C24.59,71.724 24.59,71.724 24.6,71.734 C24.602,71.744 24.605,71.754 24.607,71.764 C25.610074,65.740648 30.18316,62.067763 37.854469,58.576443 L38.292,58.379 L47.84,43.089 L39.506,59.774 C38.803,71.833 34.978,79.556 27.112,79.825 C27.115,79.832 27.117,79.838 27.12,79.844 C28.065,81.968 29.1963,83.9543 30.47016,85.81019 L30.9,86.424 L30.92,86.444 C30.922,86.448 30.925,86.45 30.927,86.454 C31.749,87.091 32.486,87.815 33.133,88.645 C35.481,81.663 41.922,77.343 41.922,77.343 C35.192,82.577 35.581,91.819 38.122,96.178 C38.763,97.277 40.036,98.037 41.19,98.954 C42.54,100.034 44.05,101.104 45.63,102.114 C45.63,102.114 45.641,102.114 45.641,102.124 C48.15,103.774 50.83,105.314 53.3,106.614 C53.3,106.624 53.311,106.624 53.311,106.624 C54.351,107.194 55.328,107.762 56.29,108.194 C60.679,110.163 63.683,111.424 66.46,113.424 C68.782,115.096 70.49,117.664 71.91,120.584 L71.91875,120.589 L71.92,120.594 L71.92,120.604 C72.04,120.864 72.17,121.124 72.29,121.394 C72.695,122.282 73.06,123.214 73.402,124.169 C73.677,124.935 73.94,125.713 74.18,126.514 C74.58,127.854 74.939,129.254 75.24,130.674 L75.243375,130.7325 L75.243375,130.7325 L75.249,130.794 L75.27,130.794 C75.49,131.804 75.689,132.824 75.859,133.854 C77.85925,145.686187 77.182169,158.613338 76.778981,163.850461 L76.76,164.094 L72.767,164.094 C72.767,164.094 73.009,158.749 73.009,149.553 C73.009,142.537 72.283,136.61 72.283,136.61 C64.766699,142.842258 57.050761,138.634702 46.893097,129.125941 L46.561,128.814 L26.16,126.583 L46.49,125.865 C54.57,120.904 61.04,118.224 66.5,118.984 C66.46,118.944 66.39,118.93 66.36,118.874 C65.833,117.876 65.055,116.764 62.014,114.687 C60.894,113.923 58.046005,112.864 58.285005,113.424 C49.603695,124.9377 38.239846,122.288955 27.233416,109.873219 L26.9,109.494 L7.641,105.124 L27.061,106.684 C32.63,104.034 37.391,102.334 41.49,101.974 C41.092816,101.676289 40.638584,101.30431 40.177244,100.92081 L39.869179,100.664124 C38.483082,99.507556 37.132895,98.372789 37.167,98.954 C25.7424,105.0623 19.282987,98.909549 14.281129,84.897994 L14.13,84.471 L0.461,73.374 L15.043,82.36 C19.214,82.513 22.77,82.947 25.728,83.86 C24.909,82.16 24.18,80.392 23.6,78.544 C23.39,77.894 23.232287,77.129 23.157287,77.343 C13.927837,76.947396 10.093541,68.321698 10.711745,55.468016 L10.734,55.038 L3.907,40.473 L12.096,53.852 C16.298,56.558 19.474,59.146 21.519,62.004 C21.52,61.994 21.52,61.984 21.52,61.974 C21.54,61.464 21.58,60.954 21.62,60.444 C21.738,58.995 21.914,57.576 22.127,56.166 C15.537141,52.876986 14.947619,46.791443 17.00904,36.513073 L17.099,36.07 L13.977,19.639 L18.444,35.734 C21.555,38.67 23.771,41.725 24.855,44.825 C24.925,44.606 24.988,44.381 25.06,44.164 C25.13,43.954 25.2,43.744 25.27,43.534 C25.635,42.451 26.022,41.394 26.419,40.348 C26.405,40.341 26.386,40.33 26.386,40.33 L26.386643,40.327939 L26.427578,40.204219 C26.51125,39.959625 26.72275,39.3795 27.076,38.652 C27.095,38.607 27.111,38.559 27.131,38.51 C21.90018,36.573279 20.765679,30.887565 22.499904,23.248569 L22.589,22.865 L19.227,10.135 L23.577,22.335 C27.411,26.227 29.569,29.481 29.484,33.089 C29.561,32.926 29.633,32.756 29.71,32.594 C30.62,30.654 31.57,28.784 32.54,26.994 C32.991,26.155 33.444,25.334 33.898,24.527 C30.736723,22.751596 30.109091,18.691601 31.302589,13.39235 L31.383,13.045 L28.823,3.355 L32.134,12.642 C34.741,15.287 36.326,17.546 36.591,19.955 C37.168,19.015 37.744,18.095 38.31,17.204 C38.893,16.293 39.341,15.615 39.754,15.008 C37.278154,12.89559 37.365621,10.176529 39.168148,7.317033 L39.314,7.091 L39.156,0.752 Z M121.766,0.752 L121.608,7.091 L121.753852,7.317033 C123.556379,10.176529 123.643846,12.89559 121.168,15.008 C121.581,15.615 122.029,16.293 122.612,17.204 C123.178,18.095 123.754,19.015 124.331,19.955 C124.596,17.546 126.181,15.287 128.788,12.642 L128.788,12.642 L132.099,3.355 L129.539,13.045 L129.619411,13.39235 C130.812909,18.691601 130.185277,22.751596 127.024,24.527 C127.478,25.334 127.931,26.155 128.382,26.994 C129.352,28.784 130.302,30.654 131.212,32.594 C131.289,32.756 131.361,32.926 131.438,33.089 C131.353,29.481 133.511,26.227 137.345,22.335 L137.345,22.335 L141.695,10.135 L138.333,22.865 L138.422096,23.248569 C140.156321,30.887565 139.02182,36.573279 133.791,38.51 C133.811,38.559 133.827,38.607 133.846,38.652 C134.19925,39.3795 134.41075,39.959625 134.494422,40.204219 L134.494422,40.204219 L134.536,40.33 C134.536,40.33 134.517,40.341 134.503,40.348 C134.9,41.394 135.287,42.451 135.652,43.534 L135.652,43.534 L135.862,44.164 C135.934,44.381 135.997,44.606 136.067,44.825 C137.151,41.725 139.367,38.67 142.478,35.734 L142.478,35.734 L146.945,19.639 L143.823,36.07 L143.91296,36.513073 C145.974381,46.791443 145.384859,52.876986 138.795,56.166 C139.008,57.576 139.184,58.995 139.302,60.444 C139.342,60.954 139.382,61.464 139.402,61.974 C139.402,61.984 139.402,61.994 139.403,62.004 C141.448,59.146 144.624,56.558 148.826,53.852 L148.826,53.852 L157.015,40.473 L150.188,55.038 L150.210255,55.468016 C150.828459,68.321698 146.994163,76.947396 137.764713,77.343 C137.689713,77.129 137.532,77.894 137.322,78.544 C136.742,80.392 136.013,82.16 135.194,83.86 C138.152,82.947 141.708,82.513 145.879,82.36 L145.879,82.36 L160.461,73.374 L146.792,84.471 L146.640871,84.897994 C141.639013,98.909549 135.1796,105.0623 123.755,98.954 C123.789105,98.372789 122.438918,99.507556 121.052821,100.664124 L121.052821,100.664124 L120.744756,100.92081 C120.283416,101.30431 119.829184,101.676289 119.432,101.974 C123.531,102.334 128.292,104.034 133.861,106.684 L133.861,106.684 L153.281,105.124 L134.022,109.494 L133.688584,109.873219 C122.682154,122.288955 111.318305,124.9377 102.636995,113.424 C102.875995,112.864 100.028,113.923 98.908,114.687 C95.867,116.764 95.089,117.876 94.562,118.874 C94.532,118.93 94.462,118.944 94.422,118.984 C99.882,118.224 106.352,120.904 114.432,125.865 L114.432,125.865 L134.762,126.583 L114.361,128.814 L114.028903,129.125941 C103.871239,138.634702 96.155301,142.842258 88.639,136.61 C88.639,136.61 87.913,142.537 87.913,149.553 L87.913789,150.459708 C87.928864,159.099394 88.155,164.094 88.155,164.094 L88.155,164.094 L84.162,164.094 L84.143019,163.850461 C83.739831,158.613338 83.06275,145.686187 85.063,133.854 C85.233,132.824 85.432,131.804 85.652,130.794 L85.652,130.794 L85.673,130.794 L85.678625,130.7325 L85.678625,130.7325 L85.682,130.674 C85.983,129.254 86.342,127.854 86.742,126.514 C86.982,125.713 87.245,124.935 87.52,124.169 C87.862,123.214 88.227,122.282 88.632,121.394 C88.752,121.124 88.882,120.864 89.002,120.604 L89.002,120.604 L89.002,120.594 L89.00325,120.589 C90.432,117.664 92.14,115.096 94.462,113.424 C97.239,111.424 100.243,110.163 104.632,108.194 C105.594,107.762 106.571,107.194 107.611,106.624 C107.611,106.624 107.622,106.624 107.622,106.614 C110.092,105.314 112.772,103.774 115.281,102.124 C115.281,102.114 115.292,102.114 115.292,102.114 C116.872,101.104 118.382,100.034 119.732,98.954 C120.886,98.037 122.159,97.277 122.8,96.178 C125.341,91.819 125.73,82.577 119,77.343 C119,77.343 125.441,81.663 127.789,88.645 C128.436,87.815 129.173,87.091 129.995,86.454 L129.995,86.454 L130.002,86.444 L130.022,86.424 L130.45184,85.81019 C131.7257,83.9543 132.857,81.968 133.802,79.844 C133.805,79.838 133.807,79.832 133.81,79.825 C125.944,79.556 122.119,71.833 121.416,59.774 L121.416,59.774 L113.082,43.089 L122.63,58.379 L123.067531,58.576443 C130.73884,62.067763 135.311926,65.740648 136.315,71.764 L136.315,71.764 L136.322,71.734 C136.332,71.724 136.332,71.724 136.322,71.714 C136.522,70.794 136.672,69.874 136.782,68.934 C136.802,68.804 136.812,68.684 136.822,68.564 C136.834,68.483 136.844,68.396 136.854,68.313 C136.858,68.288 136.86,68.264 136.864,68.24 C136.876,68.14 136.888,68.044 136.902,67.944 L136.902,67.944 L136.902,67.914 L136.98093,67.112601 C137.170889,64.972025 137.197556,62.805111 137.082,60.654 C137.044,59.877 136.978,59.096 136.902,58.321 C134.733,58.519 130.51,58.53 127.614,56.126 C124.766,53.763 123.976,49.707 123.755,47.51 L123.755,47.51 L111.947,35.464 L124.283,45.888 L124.412415,45.870841 C126.25611,45.633781 131.137667,45.317286 134.363,47.994 C134.706,48.279 135.009,48.595 135.295,48.922 C135.224,48.634 135.166,48.34 135.092,48.054 L135.092,48.054 L134.972,47.574 L134.96325,47.569 L134.96325,47.569 C134.682,46.454 134.372,45.354 134.042,44.274 C133.708,43.174 133.35,42.098 132.983,41.033 C131.269,41.693 128.419,42.442 125.905,41.44 C123.321,40.41 121.753,37.795 120.984,36.141 L120.984,36.141 L120.86953,36.114543 C117.992926,35.440906 108.535671,32.573244 109.014679,24.061005 L109.014679,24.061005 L109.04,23.717 L109.040616,23.756271 C109.057458,24.494063 109.524416,33.445625 122.267655,33.72889 L122.683,33.735 C124.411,33.169 126.852,32.719 129.035,33.589 C129.53,33.786 129.987,34.042 130.409,34.339 C129.916,33.179 129.412,32.037 128.892,30.924 C128.389,29.815 127.857,28.737 127.326,27.68 C126.013,28.537 123.585,29.794 121.153,29.335 C118.803,28.891 117.044,26.958 116.107,25.675 C105.18588,22.51646 110.967076,15.463498 111.202693,15.182643 L111.202693,15.182643 L111.21,15.174 L111.07884,15.456721 C108.138827,21.98091 113.573873,23.439648 116.365,23.765 C117.684,22.908 120.097,21.668 122.515,22.124 C123.313,22.275 124.039,22.603 124.693,23.014 C124.609,22.763 124.539,22.516 124.482,22.271 C124.305,21.953 124.129,21.627 123.952,21.314 C123.942,21.304 123.942,21.284 123.932,21.284 C123.592,20.684 123.262,20.084 122.912,19.504 C122.922,19.494 122.922,19.494 122.902,19.484 L122.902,19.484 L122.787225,19.287105 C122.340562,19.530715 119.339731,21.076529 116.804319,20.097719 C114.792031,19.320947 113.634854,17.173531 113.157709,16.078694 C109.719789,13.172726 112.553721,8.576818 112.553721,8.576818 C111.533759,12.019763 112.319329,13.949633 113.72345,15.01611 C114.874791,14.524954 117.036001,13.838414 118.937328,14.573025 C119.588549,14.824433 120.150573,15.219845 120.628035,15.675141 C119.652675,14.091231 118.692861,12.594184 117.762,11.184 C116.932,9.924 116.132,8.744 115.352,7.624 L115.352,7.624 L117.339,9.752 L117.507694,9.978231 C118.095965,10.760479 118.373333,11.058167 119.07,12.039 C119.101,12.082 119.127,12.118 119.156,12.16 C119.165,10.805 119.854,9.168 121.031,7.105 L121.031,7.105 L121.766,0.752 Z" id="Combined-Shape"></path>
        </g>
    </g>
</svg>