<?xml version="1.0" encoding="UTF-8"?>
<svg width="630px" height="714px" viewBox="0 0 630 714" version="1.1" xmlns="http://www.w3.org/2000/svg" xmlns:xlink="http://www.w3.org/1999/xlink">
    <title>Logo</title>
    <g id="Page-1" stroke="none" stroke-width="1" fill="none" fill-rule="evenodd">
        <g id="Lolev" transform="translate(-164.000000, -210.000000)" fill="#CAA557">
            <g id="Logo" transform="translate(164.682000, 211.327000)">
                <path d="M465.318,619.673 L465.318,631.966103 L430.156206,631.966103 L430.156206,658.931621 L461.414751,658.931621 L461.414751,671.224724 L430.156206,671.224724 L430.156206,699.376592 L465.318,699.376592 L465.318,711.673 L415.318,711.673 L415.318,619.673 L465.318,619.673 Z M164.816363,618.673 C173.373319,618.673 181.213102,620.657985 188.329162,624.624686 C195.445223,628.591387 201.054892,634.111412 205.161445,641.174952 C209.264723,648.235221 211.318,656.214404 211.318,665.109232 C211.318,674.004059 209.264723,682.006134 205.161445,689.112186 C201.054892,696.221507 195.445223,701.757883 188.329162,705.724584 C181.213102,709.694555 173.373319,711.673 164.816363,711.673 C156.34455,711.673 148.550614,709.694555 141.434553,705.724584 C134.315218,701.757883 128.6859,696.221507 124.536775,689.112186 C120.38765,682.006134 118.318,674.004059 118.318,665.109232 C118.318,656.214404 120.38765,648.235221 124.536775,641.174952 C128.6859,634.111412 134.315218,628.591387 141.434553,624.624686 C148.550614,620.657985 156.34455,618.673 164.816363,618.673 Z M558.33838,619.673 L585.386926,694.521921 L612.560195,619.673 L628.318,619.673 L594.045349,709.673 L576.718656,709.673 L542.318,619.673 L558.33838,619.673 Z M306.343788,619.673 L306.343788,697.759331 L337.318,697.759331 L337.318,709.673 L291.318,709.673 L291.318,619.673 L306.343788,619.673 Z M15.343788,619.673 L15.343788,697.759331 L46.318,697.759331 L46.318,709.673 L0.318,709.673 L0.318,619.673 L15.343788,619.673 Z M164.816363,631.753629 C158.790798,631.753629 153.420187,633.107474 148.704528,635.808624 C143.988869,638.509773 140.298211,642.39472 137.635828,647.453653 C134.970171,652.512586 133.640617,658.392329 133.640617,665.109232 C133.640617,671.826135 134.970171,677.735309 137.635828,682.833484 C140.298211,687.934929 143.988869,691.862388 148.704528,694.60932 C153.420187,697.356252 158.790798,698.726448 164.816363,698.726448 C170.841927,698.726448 176.212539,697.356252 180.928198,694.60932 C185.643857,691.862388 189.33124,687.934929 192.000172,682.833484 C194.65928,677.735309 195.992108,671.826135 195.992108,665.109232 C195.992108,658.392329 194.65928,652.512586 192.000172,647.453653 C189.33124,642.39472 185.643857,638.509773 180.928198,635.808624 C176.212539,633.107474 170.841927,631.753629 164.816363,631.753629 Z" id="LOLEV"></path>
                <path d="M168.598226,-0.327 L170.996882,20.4812122 C176.511445,24.3106076 177.956543,31.8634348 177.1159,37.0380378 C177.531496,36.3442443 178.623513,34.9308242 180.391951,32.7977777 L180.796072,32.3119216 C182.872348,29.8234128 185.783713,26.4464762 189.530165,22.1811118 C186.984654,25.8494886 184.373872,29.7143856 181.665187,33.8413094 C178.970135,37.9389497 176.200713,42.2605097 173.387477,46.8059892 C173.900534,46.4121325 174.440313,46.0455078 175.007573,45.7124927 C180.720863,42.3563571 187.98643,43.4717883 191.920596,44.4723957 C192.595602,43.7593679 193.221924,43.1680766 193.847074,42.6248694 L194.115063,42.3947955 C194.427955,42.1293095 194.742252,41.8732141 195.063891,41.6173027 L195.34152,41.3977804 C197.998703,39.3086673 201.255301,37.0573432 208.318,29.673 C208.318,29.673 203.800869,36.4445719 194.270077,47.6251291 C193.297878,51.4175951 190.682663,58.9697202 184.635584,62.5194159 C176.381614,67.3649801 164.318,62.5194159 164.318,62.5194159 C164.318,62.5194159 164.370034,62.2638744 164.484665,61.8123623 C161.035471,68.4671231 159.222522,72.0592488 159.046031,72.5885392 C161.180344,71.2423759 171.150265,64.9158817 186.224264,75.0483168 C195.463166,73.9674558 213.578724,69.0675525 203.047485,46.9099017 C203.047485,46.9099017 223.434424,70.7478001 187.06624,81.3042094 C172.405072,105.587554 155.090697,100.960191 147.007065,96.2067873 C145.274159,99.6688179 142.000892,105.882334 140.391998,109.681724 C141.769185,108.708949 143.260594,107.870463 144.876015,107.225222 C152.000185,104.375679 159.966331,105.84958 165.605618,107.703421 C206.315139,107.405365 206.970376,82.6748564 206.758571,78.2257791 L206.755,78.168 L206.774646,78.4124387 C208.639224,106.559429 180.664034,113.400417 171.427123,115.520439 L171.150265,115.58388 C168.640652,121.001287 163.52352,129.566291 155.090697,132.939888 C146.886317,136.221775 137.585408,133.768548 131.99181,131.606826 C130.794114,135.095059 123.884785,151.758934 123.555174,160.630697 C124.488528,159.559662 126.368839,155.339914 127.488212,154.406443 C161.478972,118.55987 169.113856,177.477912 208.314381,114.250818 C200.70988,131.420985 191.826815,143.541893 181.665187,150.613543 C163.11017,209.045544 127.488212,183.334021 119.593862,183.334021 C115.919187,209.519792 120.442366,229.084113 121.095061,232.097422 C121.062427,232.130176 121.062427,232.130176 121.095061,232.162929 C121.101588,232.195682 121.111379,232.228436 121.117906,232.261189 C129.354921,201.528319 155.769987,196.511214 171.150265,196.511214 C180.526432,191.19757 188.454798,180.157817 194.935363,163.391955 C193.803426,168.730049 193.067667,172.395262 192.069196,175.878715 L191.895333,176.474377 C190.040167,182.715967 187.211824,188.644732 179.567652,202.956904 C170.078293,246.139401 154.963421,257.782611 129.292914,258.663676 C129.302705,258.686603 129.309232,258.706255 129.319022,258.725907 C133.648945,277.24889 138.169133,275.720463 140.391998,282.753445 C144.286985,259.137217 170.088037,255.575879 171.118521,255.442872 L171.150265,255.438871 C162.830569,271.879658 162.830569,292.7293 170.549785,304.925419 C177.767096,315.32336 193.459597,326.878691 206.708195,335.874934 C208.16582,336.706033 209.569345,337.525413 210.956253,338.347816 L211.786703,338.841739 L211.786703,338.841739 L213.028837,339.585532 C213.166803,339.668443 213.30479,339.751459 213.442836,339.834593 L214.272117,340.334939 C221.193664,344.51833 228.449449,349.072209 240.724904,355.839632 C255.356571,364.780849 265.35763,372.989205 271.520259,379.102688 L272.05408,379.636642 C274.673576,382.278882 276.550508,384.505587 277.7529,386.199801 C290.775396,404.548977 291.296296,428.231729 291.317132,522.51514 L291.318,534.673 L278.286938,534.673 C278.286938,534.673 278.295192,534.588242 278.310545,534.420262 L278.325416,534.255934 C278.576506,531.455593 279.971453,514.664732 279.971453,487.255538 C279.971453,486.10655 279.967242,484.952172 279.959241,483.795815 L279.947847,482.407456 C279.945653,482.175977 279.943315,481.944474 279.940836,481.712973 L279.924287,480.324221 L279.924287,480.324221 L279.904504,478.936845 C279.591427,458.605147 278.286938,439.140005 278.286938,439.140005 C251.981433,465.583054 201.845937,451.892078 192.764271,419.119131 L192.764271,419.119131 L126.186085,411.811856 L192.532564,409.460164 C219.683228,386.786792 227.697189,383.107288 262.78456,386.786792 C259.058774,380.529353 246.824952,372.550718 236.724085,367.674127 C204.582104,394.85942 164.858282,397.567418 128.601057,355.839632 L128.601057,355.839632 L65.7497619,341.526412 L129.126477,346.635937 C130.997361,345.742444 132.82306,344.846741 134.607643,343.957464 L136.127312,343.197002 C150.973575,335.738564 162.981564,328.911976 174.588071,327.888915 C165.701624,323.15037 167.834573,322.135952 160.227409,319.058808 C127.426206,336.991275 86.9264614,322.53046 86.9264614,273.880889 L86.9264614,273.880889 L42.318,237.534481 L89.9060156,266.966654 C103.517976,267.46778 115.122899,268.889276 124.776263,271.879658 C119.593862,265.518597 115.925714,247.959877 115.919187,247.933674 C86.4271495,247.933674 73.4776744,220.355341 75.843695,177.477912 L75.843695,177.477912 L53.5639403,129.772638 L80.2885501,173.593363 C94.0016787,182.456424 104.36648,190.932994 111.04029,200.293906 C111.043553,200.261152 111.043553,200.228399 111.043553,200.195646 C111.078954,199.289654 111.454198,195.128959 111.901135,190.773767 L111.98571,189.955637 L111.98571,189.955637 L112.071572,189.13743 C112.402678,186.006555 112.753505,182.972817 113.024484,181.172492 C91.2114062,170.24597 87.1938456,150.128853 94.2657993,115.58388 C88.1043289,97.3587765 88.1043289,77.3497464 94.2657993,55.5567898 C90.6908383,79.7180482 92.5455909,99.2827244 99.8300571,114.250818 C110.801865,118.456833 118.389639,133.873359 121.927248,144.026902 L121.927248,144.026902 L121.957649,143.936349 C122.224205,143.159354 123.927924,138.410253 125.633146,133.668446 L125.909455,132.900197 C127.656624,128.042983 129.323525,123.420351 129.354921,123.343152 C111.999752,116.894015 108.462143,97.7529488 114.53221,72.1005141 C112.204263,59.6135218 112.204263,46.8604536 114.53221,33.8413094 C113.527059,51.2101003 114.601831,63.3845257 117.756525,70.3645858 C130.268694,83.1121951 137.311276,93.7701397 137.033881,105.587554 C137.16587,105.307132 140.444623,98.6217575 143.889814,91.7923495 L144.287905,91.0040579 C147.276585,85.0924201 150.304067,79.2532533 151.438867,77.5441232 C138.988703,72.1005141 138.988703,57.8495253 143.231223,39.9367105 C142.006806,36.4513704 142.006806,27.038295 143.231223,11.6974843 C143.231223,26.2982288 144.04818,35.2713174 145.682094,38.6167499 C154.189977,47.2800147 159.362588,54.6789997 160.227409,62.5692851 C161.044571,61.233195 162.633042,58.3862908 164.370591,55.4261315 L164.826837,54.6522658 C166.96795,51.03748 169.249813,47.4349532 170.549785,46.3661959 C162.257291,39.2652665 162.776184,30.0713972 169.113856,20.4353575 L169.113856,20.4353575 L168.598226,-0.327 Z" id="Left"></path>
                <path d="M451.962226,-0.327 L454.360882,20.4812122 C459.875445,24.3106076 461.320543,31.8634348 460.4799,37.0380378 C460.895496,36.3442443 461.987513,34.9308242 463.755951,32.7977777 L464.160072,32.3119216 C466.236348,29.8234128 469.147713,26.4464762 472.894165,22.1811118 C470.348654,25.8494886 467.737872,29.7143856 465.029187,33.8413094 C462.334135,37.9389497 459.564713,42.2605097 456.751477,46.8059892 C457.264534,46.4121325 457.804313,46.0455078 458.371573,45.7124927 C464.084863,42.3563571 471.35043,43.4717883 475.284596,44.4723957 C475.959602,43.7593679 476.585924,43.1680766 477.211074,42.6248694 L477.479063,42.3947955 C477.791955,42.1293095 478.106252,41.8732141 478.427891,41.6173027 L478.70552,41.3977804 C481.362703,39.3086673 484.619301,37.0573432 491.682,29.673 C491.575021,29.8329413 487.052742,36.5761079 477.634077,47.6251291 C476.661878,51.4175951 474.046663,58.9697202 467.999584,62.5194159 C459.745614,67.3649801 447.682,62.5194159 447.682,62.5194159 C447.682,62.5194159 447.734034,62.2638744 447.848665,61.8123623 C444.399471,68.4671231 442.586522,72.0592488 442.410031,72.5885392 C444.544344,71.2423759 454.514265,64.9158817 469.588264,75.0483168 C478.827166,73.9674558 496.942724,69.0675525 486.411485,46.9099017 C486.411485,46.9099017 506.798424,70.7478001 470.43024,81.3042094 C455.769072,105.587554 438.454697,100.960191 430.371065,96.2067873 C428.638159,99.6688179 425.364892,105.882334 423.755998,109.681724 C425.133185,108.708949 426.624594,107.870463 428.240015,107.225222 C435.364185,104.375679 443.330331,105.84958 448.969618,107.703421 C489.679139,107.405365 490.334376,82.6748564 490.122571,78.2257791 L490.119,78.168 L490.138646,78.4124387 C492.003224,106.559429 464.028034,113.400417 454.791123,115.520439 L454.514265,115.58388 C452.004652,121.001287 446.88752,129.566291 438.454697,132.939888 C430.250317,136.221775 420.949408,133.768548 415.35581,131.606826 C414.158114,135.095059 407.248785,151.758934 406.919174,160.630697 C407.852528,159.559662 409.732839,155.339914 410.852212,154.406443 C444.842972,118.55987 452.477856,177.477912 491.678381,114.250818 C484.07388,131.420985 475.190815,143.541893 465.029187,150.613543 C446.47417,209.045544 410.852212,183.334021 402.957862,183.334021 C399.283187,209.519792 403.806366,229.084113 404.459061,232.097422 C404.426427,232.130176 404.426427,232.130176 404.459061,232.162929 C404.465588,232.195682 404.475379,232.228436 404.481906,232.261189 C412.718921,201.528319 439.133987,196.511214 454.514265,196.511214 C463.890432,191.19757 471.818798,180.157817 478.299363,163.391955 C477.167426,168.730049 476.431667,172.395262 475.433196,175.878715 L475.259333,176.474377 C473.404167,182.715967 470.575824,188.644732 462.931652,202.956904 C453.442293,246.139401 438.327421,257.782611 412.656914,258.663676 C412.666705,258.686603 412.673232,258.706255 412.683022,258.725907 C417.012945,277.24889 421.533133,275.720463 423.755998,282.753445 C427.650985,259.137217 453.452037,255.575879 454.482521,255.442872 L454.514265,255.438871 C446.194569,271.879658 446.194569,292.7293 453.913785,304.925419 C461.131096,315.32336 476.823597,326.878691 490.072195,335.874934 C491.52982,336.706033 492.933345,337.525413 494.320253,338.347816 L495.150703,338.841739 L495.150703,338.841739 L496.392837,339.585532 C496.530803,339.668443 496.66879,339.751459 496.806836,339.834593 L497.636117,340.334939 C504.557664,344.51833 511.813449,349.072209 524.088904,355.839632 C538.720571,364.780849 548.72163,372.989205 554.884259,379.102688 L555.41808,379.636642 C558.037576,382.278882 559.914508,384.505587 561.1169,386.199801 C574.139396,404.548977 574.660296,428.231729 574.681132,522.51514 L574.681986,531.56304 L574.681986,531.56304 L574.682,534.673 L561.650938,534.673 C561.650938,534.673 561.659192,534.588242 561.674545,534.420262 L561.689416,534.255934 C561.940506,531.455593 563.335453,514.664732 563.335453,487.255538 C563.335453,486.10655 563.331242,484.952172 563.323241,483.795815 L563.311847,482.407456 C563.309653,482.175977 563.307315,481.944474 563.304836,481.712973 L563.288287,480.324221 L563.288287,480.324221 L563.268504,478.936845 C562.955427,458.605147 561.650938,439.140005 561.650938,439.140005 C535.345433,465.583054 485.209937,451.892078 476.128271,419.119131 L476.128271,419.119131 L409.550085,411.811856 L475.896564,409.460164 C503.047228,386.786792 511.061189,383.107288 546.14856,386.786792 C542.422774,380.529353 530.188952,372.550718 520.088085,367.674127 C487.946104,394.85942 448.222282,397.567418 411.965057,355.839632 L411.965057,355.839632 L349.113762,341.526412 L412.490477,346.635937 C414.361361,345.742444 416.18706,344.846741 417.971643,343.957464 L419.491312,343.197002 C434.337575,335.738564 446.345564,328.911976 457.952071,327.888915 C449.065624,323.15037 451.198573,322.135952 443.591409,319.058808 C410.790206,336.991275 370.290461,322.53046 370.290461,273.880889 L370.290461,273.880889 L325.682,237.534481 L373.270016,266.966654 C386.881976,267.46778 398.486899,268.889276 408.140263,271.879658 C402.957862,265.518597 399.289714,247.959877 399.283187,247.933674 C369.79115,247.933674 356.841674,220.355341 359.207695,177.477912 L359.207695,177.477912 L336.92794,129.772638 L363.65255,173.593363 C377.365679,182.456424 387.73048,190.932994 394.40429,200.293906 C394.407553,200.261152 394.407553,200.228399 394.407553,200.195646 C394.442954,199.289654 394.818198,195.128959 395.265135,190.773767 L395.34971,189.955637 L395.34971,189.955637 L395.435572,189.13743 C395.766678,186.006555 396.117505,182.972817 396.388484,181.172492 C374.575406,170.24597 370.557846,150.128853 377.629799,115.58388 C371.468329,97.3587765 371.468329,77.3497464 377.629799,55.5567898 C374.054838,79.7180482 375.909591,99.2827244 383.194057,114.250818 C394.165865,118.456833 401.753639,133.873359 405.291248,144.026902 L405.291248,144.026902 L405.321649,143.936349 C405.588205,143.159354 407.291924,138.410253 408.997146,133.668446 L409.273455,132.900197 C411.020624,128.042983 412.687525,123.420351 412.718921,123.343152 C395.363752,116.894015 391.826143,97.7529488 397.89621,72.1005141 C395.568263,59.6135218 395.568263,46.8604536 397.89621,33.8413094 C396.891059,51.2101003 397.965831,63.3845257 401.120525,70.3645858 C413.632694,83.1121951 420.675276,93.7701397 420.397881,105.587554 C420.52987,105.307132 423.808623,98.6217575 427.253814,91.7923495 L427.651905,91.0040579 C430.640585,85.0924201 433.668067,79.2532533 434.802867,77.5441232 C422.352703,72.1005141 422.352703,57.8495253 426.595223,39.9367105 C425.370806,36.4513704 425.370806,27.038295 426.595223,11.6974843 C426.595223,26.2982288 427.41218,35.2713174 429.046094,38.6167499 C437.553977,47.2800147 442.726588,54.6789997 443.591409,62.5692851 C444.408571,61.233195 445.997042,58.3862908 447.734591,55.4261315 L448.190837,54.6522658 C450.33195,51.03748 452.613813,47.4349532 453.913785,46.3661959 C445.621291,39.2652665 446.140184,30.0713972 452.477856,20.4353575 L452.477856,20.4353575 L451.962226,-0.327 Z" id="Right" transform="translate(450.500000, 267.500000) scale(-1, 1) translate(-450.500000, -267.500000) "></path>
            </g>
        </g>
    </g>
</svg>