<svg xmlns="http://www.w3.org/2000/svg" xmlns:xlink="http://www.w3.org/1999/xlink" width="178" height="86" viewBox="0 0 178 86">
    <defs>
        <path d="M0 84.964L177.552 84.964 177.552 0.316 0 0.316z"></path>
    </defs>
    <g fill="none" fill-rule="evenodd">
        <g>
            <g>
                <g>
                    <g>
                        <path fill="#3D4E40" d="M0 60.904L1.48 60.904 1.48 46.032 15.445 61.443 15.445 42.046 13.965 42.046 13.965 56.89 0 41.506zM24.485 42.045L34.172 42.045 34.172 43.419 26.449 43.419 26.449 50.289 32.799 50.289 32.799 51.582 26.449 51.582 26.449 59.53 34.387 59.53 34.387 60.904 24.485 60.904zM59.088 47.703L51.258 61.443 43.131 47.73 43.131 60.904 41.651 60.904 41.651 41.507 51.581 58.237 61.052 41.507 61.052 60.904 59.088 60.904zM72.016 53.522h6.808l-3.31-7.84-3.498 7.84zm12 7.382h-2.098l-2.583-6.116H71.45l-2.718 6.116H67.28l8.556-19.398 8.18 19.398z" transform="translate(-100 -393) translate(0 373) translate(100 20)"></path>
                        <g transform="translate(-100 -393) translate(0 373) translate(100 20) translate(0 .202)">
                            <path fill="#3D4E40" d="M96.875 61.052c-4.628 0-8.745-3.583-8.745-9.591 0-6.25 4.278-9.968 9.014-9.968 3.31 0 6.188 1.967 6.377 4.876l-2.287.296c-.323-2.532-2.072-3.932-4.682-3.932-3.498 0-6.431 3.232-6.431 7.947 0 4.823 3.094 8.486 7.265 8.486 2.718 0 5.112-1.4 6.458-3.799-.512 3.961-3.74 5.685-6.97 5.685M111.719 50.976c0 5.415 3.39 8.837 7.265 8.837 3.848 0 6.754-3.18 6.754-8.244 0-5.47-3.417-8.864-7.373-8.864-3.82 0-6.646 3.233-6.646 8.271m16.252.378c0 5.899-4.52 9.698-9.337 9.698-4.924 0-9.148-3.745-9.148-9.887 0-5.873 4.52-9.672 9.337-9.672 4.924 0 9.148 3.718 9.148 9.86M135.251 41.843L137.216 41.843 137.216 59.301 145.208 59.301 145.208 60.702 135.251 60.702z"></path>
                            <mask fill="#fff">
                                <use xlink:href="#cz9qmiubwa"></use>
                            </mask>
                            <path fill="#3D4E40" d="M151.681 60.701L153.645 60.701 153.645 41.843 151.681 41.843zM162.107 41.304L176.072 56.688 176.072 41.843 177.553 41.843 177.553 61.24 163.587 45.83 163.587 60.702 162.107 60.702zM55.011 76.62l-1.24.16c0-.708-.252-1.425-1.174-1.425-.763 0-1.184.547-1.184 1.196 0 .639.433 1.151 1.264 1.619l.865.49c.98.56 1.663 1.118 1.663 2.178 0 1.264-1.196 2.21-2.63 2.21-1.606 0-2.597-.865-2.608-2.187l1.241-.16c0 .98.387 1.778 1.514 1.778.877 0 1.413-.559 1.413-1.323 0-.683-.422-1.116-1.367-1.664l-.968-.558c-.888-.513-1.4-1.22-1.4-2.098 0-1.07.888-2.051 2.368-2.051 1.321 0 2.22.775 2.243 1.835M59.772 82.912L60.854 82.912 60.854 74.932 59.772 74.932zM65.899 74.705L71.728 80.792 71.728 74.933 72.445 74.933 72.445 83.14 66.616 77.064 66.616 82.912 65.899 82.912zM80.231 83.06c-2.06 0-3.802-1.539-3.802-4.047 0-2.667 1.855-4.229 3.836-4.229 1.39 0 2.699.765 2.779 2.132l-1.253.148c-.103-1.071-.774-1.653-1.776-1.653-1.367 0-2.482 1.254-2.482 3.101 0 2.052 1.309 3.545 3.04 3.545 1.07 0 2.038-.513 2.596-1.413-.16 1.642-1.548 2.417-2.938 2.417M86.993 74.932L91.251 74.932 91.251 75.605 88.074 75.605 88.074 78.398 90.681 78.398 90.681 79.025 88.074 79.025 88.074 82.24 91.353 82.24 91.353 82.912 86.993 82.912zM103.055 76.722L103.055 82.912 102.065 82.912 102.065 78.295 100.676 79.219 100.254 78.557zM110.912 80.53c.012-.103.012-.217.012-.32 0-1.368-.535-2.735-1.72-2.735-.91 0-1.434.798-1.434 1.721 0 1.128.66 1.824 1.651 1.824.592 0 1.082-.194 1.491-.49m-.01.17c-.445.765-1.219 1.084-2.005 1.084-1.207 0-2.197-.855-2.197-2.28 0-1.483 1.173-2.622 2.607-2.622 1.605 0 2.698 1.39 2.698 3.329 0 3.123-2.368 4.753-4.326 4.753-.33 0-.763-.068-.91-.262 2.254-.046 3.927-1.722 4.133-4.002M117.627 78.136l.581.319c.649-.501.922-1.026.922-1.607 0-.719-.512-1.334-1.366-1.334-.797 0-1.298.524-1.298 1.152 0 .524.376 1.048 1.161 1.47zm-.34 1.003c-.832.524-1.197 1.106-1.197 1.756 0 .911.74 1.55 1.685 1.55.99 0 1.606-.684 1.606-1.368 0-.707-.536-1.072-1.287-1.494l-.808-.444zm2.776-2.406c0 .924-.773 1.574-1.65 1.836l.284.148c1.026.559 1.708 1.06 1.708 2.075 0 1.527-1.309 2.234-2.664 2.234-1.366 0-2.607-.74-2.607-1.972 0-1.015.968-1.733 1.959-2.03-.923-.512-1.606-1.093-1.606-2.062 0-1.038.877-2.03 2.3-2.03 1.218 0 2.276.65 2.276 1.801zM123.156 76.984L128.04 76.984 124.442 84.85 123.6 84.85 126.845 77.896 123.042 77.896zM88.008 23.713c-1.4 0-2.747-.222-4.01-.63 2.327-2.433 3.76-5.732 3.76-9.368 0-1.713-.32-3.35-.899-4.859-.024-.063.06-.107.098-.052 1.873 2.655 4.96 4.39 8.452 4.39 2.09 0 4.034-.623 5.66-1.69-.463 6.82-6.132 12.209-13.061 12.209m9.354-19.47c.54 0 .979.438.979.98 0 .541-.438.98-.98.98-.54 0-.978-.439-.978-.98 0-.542.438-.98.979-.98m6.455.81l-2.598.005c-.986-1.883-2.643-3.421-4.796-4.206-4.587-1.672-9.658.697-11.327 5.288l-.536 1.473c-1.604 4.414-6.351 6.77-10.79 5.463-.09-.026-.178.05-.16.143 1.068 5.798 5.593 10.381 11.356 11.531l1.996 3.92-.215.083c-.15.058-.238.213-.214.372.162 1.009.97 1.998.97 1.998l.002-1.005 1.515 2.296.083-.037c-.325-2.274-1.477-5.358-1.968-7.362.273.012.548.02.824.017.192-.002.383-.011.573-.021l3.607 3.602-.162.11c-.139.096-.196.276-.135.434.357.938 1.521 1.615 1.521 1.615l-.283-.963 2.147 1.806.07-.057c-1.199-2.537-3.045-4.735-4.623-6.82 6.627-1.365 11.564-7.357 11.564-14.384V9.255c.006-.603-.056-1.198-.17-1.781l1.847-2.214c.069-.083.01-.208-.098-.208" mask="url(#z5kqtdnmyb)"></path>
                        </g>
                    </g>
                </g>
            </g>
        </g>
    </g>
</svg>