<?xml version="1.0" standalone="no"?>
<!DOCTYPE svg PUBLIC "-//W3C//DTD SVG 20010904//EN"
 "http://www.w3.org/TR/2001/REC-SVG-20010904/DTD/svg10.dtd">
<svg version="1.0" xmlns="http://www.w3.org/2000/svg"
 width="160.000000pt" height="160.000000pt" viewBox="0 0 160.000000 160.000000"
 preserveAspectRatio="xMidYMid meet">
<metadata>
Created by potrace 1.11, written by Peter Selinger 2001-2013
</metadata>
<g transform="translate(0.000000,160.000000) scale(0.100000,-0.100000)"
fill="#000000" stroke="none">
<path d="M374 1555 c-3 -14 -1 -32 5 -39 9 -11 9 -19 -1 -35 -15 -24 -28 -27
-28 -7 0 7 -7 20 -16 27 -9 7 -20 22 -24 34 -5 13 -8 2 -9 -34 0 -33 5 -64 14
-77 12 -19 12 -26 -5 -58 l-18 -37 -17 34 c-9 20 -25 43 -36 53 -10 9 -19 23
-19 30 0 7 -5 16 -12 20 -7 5 -8 3 -3 -5 4 -7 8 -46 9 -88 1 -64 4 -77 23 -93
17 -14 20 -23 15 -44 l-7 -27 -33 41 c-19 22 -39 60 -46 83 -11 38 -12 32 -11
-75 1 -114 2 -119 28 -146 16 -17 27 -39 27 -56 l0 -28 -37 36 c-21 20 -40 36
-44 36 -4 0 -21 23 -39 50 -18 28 -34 50 -36 50 -2 0 7 -22 21 -50 17 -34 25
-66 25 -102 0 -55 25 -123 53 -146 9 -7 28 -17 43 -21 19 -5 33 -18 41 -39 13
-31 12 -32 -9 -28 -13 3 -38 7 -56 10 -30 4 -47 12 -128 61 -24 15 -23 13 6
-11 70 -58 80 -70 112 -134 49 -96 127 -137 183 -96 14 10 25 11 38 4 21 -11
16 -20 -15 -25 -11 -2 -40 -12 -62 -22 -40 -17 -143 -20 -186 -5 -10 3 -11 2
-5 -4 6 -5 39 -15 74 -22 52 -11 74 -22 114 -58 57 -50 102 -72 148 -72 34 0
91 31 112 60 12 17 14 17 50 -10 l37 -27 -41 -7 c-22 -4 -67 -20 -99 -36 -46
-23 -73 -30 -120 -30 -61 0 -87 -19 -27 -21 62 -1 91 -8 116 -28 89 -71 156
-92 215 -67 l36 15 0 -140 c0 -117 2 -139 15 -139 16 0 17 9 18 115 2 234 -44
362 -148 413 -91 44 -201 111 -226 138 -20 21 -24 36 -24 84 0 32 7 66 14 76
7 11 -1 3 -18 -16 -17 -19 -31 -38 -31 -42 0 -19 -19 -5 -43 30 l-25 39 33 12
c51 18 76 65 91 169 2 19 16 54 29 78 35 62 31 69 -6 12 -17 -26 -50 -58 -74
-73 -24 -14 -57 -41 -73 -61 l-30 -36 2 58 1 57 35 3 c39 3 90 50 90 83 0 10
16 35 35 55 45 49 45 55 -2 17 -23 -19 -49 -31 -66 -31 -16 0 -37 -5 -49 -11
-25 -14 -27 -11 -17 27 8 27 12 30 43 26 29 -3 41 1 65 25 16 17 43 35 59 42
16 7 43 26 58 43 l29 31 -38 -28 c-32 -24 -49 -28 -106 -30 l-69 -2 10 29 c8
21 15 27 28 23 42 -13 59 -12 77 5 11 10 34 25 51 34 18 9 32 21 32 25 0 5 3
18 6 28 3 10 -2 6 -10 -8 -18 -31 -51 -42 -79 -28 -10 6 -28 9 -38 6 -23 -6
-23 0 -3 33 12 20 14 21 12 5 -2 -14 4 -20 24 -21 31 -3 54 19 63 61 5 25 4
27 -5 12 -6 -9 -15 -15 -20 -12 -5 3 -19 1 -31 -5 -19 -11 -20 -10 -11 6 7 13
6 26 -4 46 -18 34 -22 35 -30 3z"/>
<path d="M1195 1560 c-6 -17 -9 -19 -22 -9 -8 7 -5 -4 8 -25 22 -38 22 -38 34
-16 12 23 9 56 -5 65 -5 3 -12 -4 -15 -15z"/>
<path d="M1125 1491 c19 -38 32 -45 74 -46 19 0 36 -6 39 -13 2 -7 -2 -10 -12
-6 -9 4 -30 1 -46 -6 -25 -10 -34 -10 -55 4 -14 9 -25 24 -25 33 0 9 -3 14 -6
10 -19 -18 23 -60 113 -111 6 -3 23 -2 37 4 21 8 27 6 36 -10 17 -31 12 -35
-43 -35 -67 0 -96 10 -126 43 l-23 27 18 -32 c10 -18 34 -39 57 -49 22 -10 53
-31 69 -47 23 -23 35 -28 63 -25 32 4 34 2 43 -34 10 -37 9 -37 -11 -23 -12 8
-38 15 -57 15 -27 0 -44 8 -65 30 -16 16 -31 28 -33 25 -2 -2 12 -21 32 -42
20 -21 36 -46 36 -55 0 -10 12 -31 28 -48 23 -25 45 -34 95 -39 4 -1 7 -21 6
-45 l-3 -45 -29 25 c-16 13 -39 27 -52 30 -14 3 -44 35 -76 80 -28 41 -54 74
-55 74 -4 0 19 -59 51 -136 8 -20 15 -53 15 -73 0 -48 30 -95 71 -111 19 -7
36 -15 38 -17 2 -1 -9 -21 -24 -43 l-28 -41 -12 28 c-7 15 -23 37 -36 48 -19
16 -21 16 -10 2 19 -24 19 -130 0 -153 -21 -26 -124 -91 -207 -130 -135 -64
-181 -179 -178 -439 1 -86 3 -100 19 -103 15 -3 17 9 17 137 l0 140 28 -15
c15 -7 39 -14 54 -14 36 0 105 31 152 69 21 17 39 31 40 32 0 0 28 3 61 6 96
9 105 19 17 21 -66 2 -89 7 -128 29 -26 15 -70 32 -97 38 l-49 11 39 26 c38
25 40 25 52 7 19 -31 73 -59 114 -59 47 0 87 20 146 75 37 34 58 44 109 55 34
7 65 17 68 21 3 5 -1 7 -8 4 -41 -14 -136 -11 -177 7 -24 10 -54 19 -67 20
-28 3 -30 10 -9 28 11 10 18 9 30 -4 24 -23 86 -20 125 7 20 13 46 47 66 87
19 36 53 82 76 104 l43 38 -49 -28 c-28 -15 -64 -29 -80 -30 -17 -2 -41 -6
-53 -9 -21 -5 -21 -3 -11 25 7 22 22 36 48 46 46 19 70 63 75 137 2 29 13 74
24 101 12 27 20 50 18 53 -2 2 -12 -15 -22 -36 -10 -22 -40 -59 -66 -81 l-49
-41 0 31 c0 20 10 44 25 62 23 28 25 36 22 129 -2 79 -4 93 -12 71 -12 -32
-57 -102 -66 -102 -4 0 -10 12 -13 26 -5 18 -2 32 11 46 13 14 19 38 20 84 1
35 -1 64 -3 64 -9 0 -32 -26 -52 -60 -19 -30 -21 -31 -31 -13 -7 15 -6 25 5
41 9 13 14 40 13 71 l-2 49 -24 -34 c-12 -19 -23 -40 -23 -47 0 -7 -8 -3 -16
8 -8 11 -19 19 -24 18 -5 -2 -6 5 -3 15 3 9 2 14 -2 9 -5 -4 -16 0 -26 9 -10
9 -27 14 -39 11 -11 -3 -20 -1 -20 4 0 5 -5 9 -10 9 -6 0 -4 -13 5 -29z"/>
<path d="M1376 1475 c-3 -9 -6 -22 -5 -28 0 -7 5 -1 10 12 5 13 8 26 5 28 -2
2 -6 -3 -10 -12z"/>
</g>
</svg>
