<?xml version="1.0" encoding="UTF-8"?>
<svg width="307px" height="583px" viewBox="0 0 307 583" version="1.1" xmlns="http://www.w3.org/2000/svg" xmlns:xlink="http://www.w3.org/1999/xlink">
    <title>Group</title>
    <g id="Page-1" stroke="none" stroke-width="1" fill="none" fill-rule="evenodd">
        <g id="Group" transform="translate(0.871094, 0.000000)" fill="#000000">
            <path d="M-2.84217094e-14,558.980469 L61.1092581,376.568607 C72.7827186,360.666543 84.5043182,348.943514 96.2740566,341.399518 C108.043795,333.855523 113.479787,330.671569 112.582031,331.847656 L116.896216,320.525077 L110.115179,320.525077 L110.115179,312.008276 L107.570791,312.008276 L107.570791,273.744352 L124.459712,264.44162 L139.577488,264.44162 L139.577488,254.994703 L131.907548,251.728115 L134.648729,232.54587 C139.28873,231.307013 142.363489,230.039833 143.873007,228.744333 C145.382524,227.448832 146.523356,225.0981 147.295503,221.692136 L147.295503,182.462961 L226.689948,194.457564 L215.194368,236.942429 L223.053969,245.689085 L220.16136,266.222131 L211.392334,266.222131 L227.798122,277.074145 L227.798122,312.008276 L224.163863,312.008276 L224.163863,322.693386 L217.704106,322.693386 L233.457723,335.883922 L275.036604,335.883922 C282.240479,333.342955 287.642472,331.368976 291.242582,329.961986 C294.842692,328.554997 299.604981,326.556586 305.529447,323.966753 L305.529447,455.559791 C296.112506,450.037161 288.834123,446.406909 283.694297,444.669036 C278.554471,442.931163 270.811136,441.482285 260.464293,440.322403 L134.648729,437.264601 C130.23705,439.3022 126.840711,441.770345 124.459712,444.669036 C122.078712,447.567727 119.102767,452.857371 115.531874,460.537968 L57.4009397,581.938905 L-2.84217094e-14,558.980469 Z" id="Path" stroke="#000000"></path>
            <circle id="Oval" cx="203.128906" cy="102" r="102"></circle>
        </g>
    </g>
</svg>