<?xml version="1.0" encoding="UTF-8"?>
<svg width="510px" height="168px" viewBox="0 0 510 168" version="1.1" xmlns="http://www.w3.org/2000/svg" xmlns:xlink="http://www.w3.org/1999/xlink">
    <title>haskel's</title>
    <g id="Page-1" stroke="none" stroke-width="1" fill="none" fill-rule="evenodd">
        <g id="haskel's" fill="#000000" fill-rule="nonzero">
            <g id="Group" transform="translate(255.000000, 84.000000) scale(-1, 1) rotate(-180.000000) translate(-255.000000, -84.000000) ">
                <path d="M428.8,142.7 C431.7,137.7 432.5,136.9 434.8,137.2 C437.2,137.5 437.4,137.8 437.4,143 C437.4,146 436.8,152.4 436.1,157.2 C435.4,162 434.3,166.3 433.7,166.8 C432.3,167.8 429.8,167.2 425.2,164.7 C422,163 421.9,162.7 422.5,158.7 C423.3,153.2 424.7,149.7 428.8,142.7 Z M138.7,109.4 C139.1,109.8 135.8,121.5 135,122.3 C134.6,122.8 133.1,120.1 131.6,116.3 C130.2,112.5 129,109.1 129,108.7 C129,108 137.8,108.7 138.7,109.4 Z M28.1,158 C27.7,151.7 27.9,151.9 25.1,151.7 C23,151.6 23,151.2 23,130.8 L23,110 L40.8,110.5 C50.5,110.9 59.1,111.3 59.9,111.6 C61.9,112.3 60.8,147.7 58.6,149.4 C57.8,150 57,152.1 56.8,154 C56.5,155.9 56.1,158.1 55.9,158.9 C55.4,160.9 63.8,162.2 75,161.8 L83.5,161.5 L83.5,155.5 C83.5,150 83.3,149.5 81.3,149.2 C79.1,148.9 79,148.4 79,140.2 C79,135.4 79.4,123.2 80,113 C80.5,102.8 81,88.1 81.2,80.2 C81.4,69.1 81.8,65.7 82.9,65.1 C83.8,64.6 84.3,62.4 84.4,59 C84.6,52.4 83.7,52 69.5,52 C58,52 58,52 58,59.5 C58,62.9 58.4,63.9 59.9,64.3 C61.8,64.8 61.9,65.5 61.3,79.1 C61,87 60.7,93.6 60.6,93.7 C60.5,93.8 52,93.6 41.7,93.3 L23,92.7 L23,79 C23,67.3 23.2,65.1 24.6,64.6 C25.7,64.2 26,63.4 25.4,62.2 C25,61.3 24.6,58.9 24.6,57 L24.5,53.5 L13.6,52.7 C7.6,52.2 2.4,52.2 2,52.7 C1.5,53.1 0.9,55.9 0.5,58.8 C-0.1,63.5 -2.55906407e-14,64.2 1.6,64.6 C3.4,65.1 3.5,66.9 3.2,107.8 C3,136.8 2.6,150.6 1.8,151.1 C1.3,151.5 0.6,154.1 0.4,156.9 C0.1,161.5 0.3,162 2.3,162.5 C5.8,163.3 12.9,163.7 21,163.6 L28.5,163.5 L28.1,158 Z M371.8,162.6 C373.7,161.4 373.2,142.3 371.2,141.5 C368.1,140.3 366,142 366,145.6 L366,149 L351.9,149 L337.9,149 L338.2,127.8 L338.5,106.5 L348,106 L357.5,105.5 L357.2,99.5 C356.8,90.6 357.1,90.8 347.8,91.1 L339.5,91.3 L339.2,78.5 C339.1,71.4 339.3,65.3 339.7,64.9 C341,63.7 364.7,65.1 364.7,66.4 C364.6,70.4 365.1,71 368.4,71 C373.5,71 374.3,69.4 373.4,60 C373.1,55.6 372.3,51.7 371.8,51.4 C370.4,50.5 316.6,50.9 315.9,51.8 C315.5,52.2 314.9,54.7 314.5,57.3 C313.9,61.7 314.1,62.2 315.9,62.7 C318,63.2 318,63.3 317.7,106.4 C317.5,134.9 316.9,151.5 316.1,155.4 C315.5,158.6 315.1,161.4 315.3,161.6 C315.8,162.1 353.2,163.5 363.1,163.4 C367.2,163.4 371.2,163 371.8,162.6 Z M402.7,163.4 C404.6,162.9 404.9,162.1 404.9,157.2 C404.9,154.1 404.5,151 404,150.4 C403.4,149.8 403.4,131.8 403.8,106.9 L404.5,64.5 L421.2,64.2 L437.9,64 L438.2,67.2 C438.5,70 438.9,70.6 441.4,70.8 C443,71 444.7,70.7 445.2,70.2 C445.7,69.7 446.4,64.9 446.6,59.6 L447,50 L416.8,50.2 L386.5,50.5 L386.2,55.4 C386,58.1 386.2,61 386.5,61.9 C387.1,63.4 387.1,129.9 386.5,135 C386.4,136.4 386.2,140.5 386.1,144.3 C386,149.2 385.6,151 384.6,151 C382.4,151 381.7,161.1 383.8,162.8 C385.4,164 398.6,164.5 402.7,163.4 Z M305.8,156.9 C306.1,151.5 306,151.2 303.3,150.7 C300.4,150 271.8,124 271.2,121.5 C270.8,120 271.8,117.8 285.3,89.5 C290.5,78.5 295.5,67.8 296.3,65.8 C297.6,62.8 298.4,62.1 301.2,61.8 L304.5,61.5 L304.5,56 L304.5,50.5 L292.3,50.2 L280,49.9 L279.8,54 C279.7,56.2 279.6,58.8 279.6,59.8 C279.5,60.8 280.4,61.6 281.8,61.8 C283,62 284,62.3 284,62.4 C284,62.6 281.8,67.4 279.2,73.1 C276.5,78.8 271.5,89.9 268,97.8 C264.5,105.6 261.1,112 260.4,112 C259.7,112 258.2,110.8 257.1,109.4 C255.1,106.9 255,105.5 255,84.4 C255,70.6 255.4,61.9 256,61.5 C257.2,60.8 257.3,52.1 256.2,50.4 C255.8,49.7 251.5,49.1 245.5,48.9 L235.5,48.5 L235.3,53.9 C235.2,57.8 235.6,59.7 236.6,60.5 C237.9,61.4 238.1,67.7 237.8,108.5 C237.6,142.8 237.2,156.1 236.3,157.6 C234.2,161.2 236.4,162 247.7,162 C255.2,162 258,161.7 258.1,160.8 C258.6,156.7 257.6,150.4 256.4,149.5 C255.2,148.7 255,146.1 255.2,137.3 L255.5,126.2 L269.5,139.1 L283.5,151.9 L283.5,156.7 L283.5,161.5 L287.5,162.1 C289.7,162.5 294.7,162.7 298.5,162.6 L305.5,162.5 L305.8,156.9 Z M138.8,159.3 C141.4,157.8 143.7,156.5 143.9,156.3 C144.8,155.6 143.8,146.6 142.4,142.2 C141.5,139.7 141.1,136.4 141.4,134.7 C142.1,131.4 147.8,113.1 157.4,83.6 L163.5,64.7 L167,63.6 C170.5,62.5 170.5,62.4 170.1,57.5 C170,54.7 169.6,52.3 169.3,52 C169.1,51.8 164.4,51.4 158.8,51.2 C147.3,50.7 147.1,50.8 147.2,58.3 C147.2,62.4 147.5,63.2 149.6,64 C150.9,64.5 151.8,65.5 151.5,66.2 C151.3,66.9 149.5,73.1 147.5,80 C145.5,86.9 143.5,92.8 143.1,93.2 C141.9,94.5 122.6,92 121.3,90.3 C120.7,89.5 118.3,84 115.9,78.2 C113.6,72.3 111.4,67.1 110.9,66.5 C110.4,66 110,62.6 110,58.9 L110,52.3 L102,51.7 C90.8,51 90.4,51.2 89.7,57.3 C89.2,60.8 89.5,62.9 90.3,63.9 C91,64.8 94.9,73.8 98.9,84 C108.2,107.4 129.9,159.1 131.3,160.8 C132.7,162.5 133.5,162.3 138.8,159.3 Z M202.5,160.3 C205.3,159.4 209.4,157.3 211.8,155.8 C214.2,154.3 216.3,153 216.5,153 C216.7,153 216.6,154.5 216.3,156.4 C215.9,159.3 216.1,159.9 218,160.5 C221.4,161.6 222.4,159.7 222.6,151.8 C222.7,147.8 223,140.6 223.3,135.8 C223.8,127.8 223.7,127 221.9,126.5 C220.5,126 218.7,127.3 214.5,131.8 C208,138.8 202,142 195.2,142 C187.4,142 182.8,137.2 185.6,131.9 C187.1,128.8 197.5,119.5 208,111.8 C218.6,104.1 226.3,95.4 228.1,89.4 C230.2,82.2 229.7,69.3 227.2,64.4 C220.7,51.8 207.8,49.4 191,57.8 C186.9,59.8 183.1,61.5 182.5,61.5 C182,61.5 181.5,60.2 181.5,58.6 C181.4,55.4 179.2,53.3 176.7,54.3 C173,55.7 173.5,87.1 177.2,87.8 C178.1,88 181.8,85.7 185.4,82.8 C193.2,76.3 199.8,72.9 205.6,72.2 C209.5,71.8 210.3,72.1 213.5,75.3 C215.7,77.5 217,79.8 217,81.4 C217,85.9 207.1,95.2 189.9,106.8 C180.7,113 176.5,118 173.3,126.8 C167.3,143.2 169.8,154.7 180.5,160.3 C184.6,162.5 196.1,162.5 202.5,160.3 Z M485.7,156.3 C488,155.2 491.5,153.2 493.5,152 L497.1,149.8 L496.5,153.3 C495.8,156.6 496,157 498.5,157.6 C499.9,158 501.5,157.9 502,157.4 C502.4,156.9 503,149.2 503.3,140.3 C503.8,126.5 503.6,124.1 502.3,123.6 C499.8,122.6 499.4,122.9 496.8,126.8 C493.6,131.5 484.9,137.6 479,139.1 C473.6,140.5 468.2,138.7 465.5,134.7 C464,132.4 464,131.8 465.3,129.3 C467,126.2 475.6,118.3 486.5,110.1 C497,102 505,94 507.3,89 C510.3,82.4 510.3,67.2 507.3,61.4 C503.3,53.8 495.7,49 487.8,49 C483.5,49 470.1,54.2 465.2,57.7 C461.7,60.3 461.3,60 460.8,54.5 C460.6,52.3 460,51.5 458.5,51.5 C455.9,51.5 455.1,55.9 455.1,71.8 C455,82.3 455.2,84.2 456.6,84.7 C458.4,85.4 458.3,85.5 466.5,78.9 C473.7,73.1 481.8,69 486.3,69 C495.2,69 499.9,77.5 494.5,83.9 C491.1,87.9 479.5,97.2 470.5,103.2 C461.8,109 457.9,113 454.6,119.6 C451.8,125.2 449,135.7 449,140.8 C449,146.9 454.4,154.9 460.4,157.6 C465.2,159.8 480.4,159 485.7,156.3 Z M264.1,37 C272.3,37 273,36.9 273,35 C273,33.3 272.3,33 269.1,33 L265.3,33 L264.6,27.8 C264.3,24.9 264,18.4 264,13.3 C264,4.9 263.8,4.1 262,3.5 C257.8,2.2 257.1,4.3 256.8,18.8 L256.5,32.5 L253,33 C250.8,33.3 249.4,34.1 249.2,35.2 C248.9,36.9 251.4,38.1 253.8,37.4 C254.6,37.2 259.2,37 264.1,37 Z M319.4,35.9 C322.1,33.8 322.9,29.7 320.8,28.4 C320.2,28 318.8,28.8 317.5,30.4 C314.3,34.4 311.5,33.6 311.6,28.7 C311.7,25.9 312.8,23.8 316.2,19.8 C323.9,10.7 324.9,6.7 320.4,3.1 C314.9,-1.2 306,2.1 306,8.5 C306,11.5 307.8,11.7 311.3,9 C314.1,6.8 317,6.4 317,8.2 C317,8.8 314.5,12.7 311.4,16.8 C304.6,25.8 303.4,30.8 307,35.3 C309.7,38.7 315.4,39 319.4,35.9 Z M330.5,5 C332.8,0.6 338.9,-0.5 343.8,2.6 C345.4,3.7 346,5 346,7.8 C346,10.9 344.9,12.9 340,19 C333.7,26.9 332.8,30.2 336.3,32.4 C337.7,33.3 338.4,33 340.4,30.6 C341.9,28.6 343.2,27.9 344.3,28.3 C346.8,29.3 346.4,31.8 343.1,35.1 C339.1,39 334.1,39.1 330.5,35.3 C326.2,30.6 327.2,26.6 334.9,17.5 C339.7,12 341.2,7.9 339.1,6.6 C338.6,6.2 336.8,7.1 335.2,8.5 C329.8,13 327.3,11.1 330.5,5 Z M113.6,3 C115.4,1.2 122.3,3.5 125.7,7 C133.5,15 132,29.4 122.8,35 C118.9,37.4 113.2,37.7 112.4,35.5 C111.85,34.15 111.85,26.325 112.1375,18.6875 L112.174123,17.7536861 C112.47198,10.4532486 113.02449,3.5755102 113.6,3 Z M119,10 C118.4,10 118,13.7 118,20 C118,25.5 118.4,30 118.8,30 C121.1,30 124.3,24.8 124.7,20.3 C125.1,16.2 124.8,15.1 122.6,12.8 C121.2,11.2 119.6,10 119,10 Z M216.5,34.7 C220.8,32.3 222.2,29.4 219.5,28.4 C218.6,28 216.8,28.3 215.6,29 C214.3,29.6 212.4,30 211.4,29.8 C209.7,29.5 209.5,28.4 209.2,19.7 C208.8,7.2 210.6,3.5 215,7.5 C217.1,9.4 220,8.4 220,5.9 C220,3.7 214.6,0 211.4,0 C208.6,0 205.2,3.4 202.9,8.4 C199,16.9 201.3,31.3 207.1,35.4 C210.2,37.5 211.7,37.4 216.5,34.7 Z M295.2,35.1 C296.7,33.8 294.2,31.9 289.9,31.2 L285.5,30.4 L285.5,26 C285.5,22 285.8,21.5 288,21.2 C293.4,20.4 292.7,17.1 287.2,17 C285.1,17 284.9,16.6 285.2,12.3 L285.5,7.5 L290.8,7.2 C295.1,6.9 296,6.6 296,5 C296,2.1 294.7,1.8 286,2.6 L278,3.3 L278.2,19.4 L278.5,35.5 L284.5,36.1 C290.5,36.6 293.9,36.3 295.2,35.1 Z M368.8,34.8 C369.1,33.3 368.4,33 364.6,33 C359.5,33 358.9,32.1 359.3,24.5 C359.5,20.9 359.8,20.5 362.3,20.4 C363.8,20.3 365.3,20 365.6,19.7 C366.9,18.4 364.9,16 362.5,16 C360.2,16 360,15.6 360,11.5 L360,7 L363.8,7 C368.4,7 370.3,5.8 369.8,3.4 C369.5,1.9 368.4,1.4 363.9,1.2 C360.9,1 357.2,1.4 355.8,1.9 C353.2,2.9 353.2,2.9 352.5,18.4 C352.1,26.9 352,34.6 352.4,35.5 C353.3,37.9 368.3,37.2 368.8,34.8 Z M154,34.5 C156.1,32 154.4,30 150.1,30 C147.6,30 146,29.5 145.6,28.5 C145,26.8 146.6,21.9 147.7,22.1 C149.8,22.4 151,21.9 151,20.6 C151,19.8 150,19 148.8,18.8 C147.3,18.6 146.4,17.5 145.8,15.1 C144.2,9.2 145,7.6 149.5,7 C152.7,6.6 153.5,6.1 153.5,4.5 C153.5,2.7 152.8,2.5 146,2.5 L138.5,2.5 L138.2,18 C138.1,26.5 138.2,34 138.4,34.7 C139.2,36.6 152.4,36.5 154,34.5 Z M385.9,25.3 L391.9,14.6 L392.2,25.1 L392.5,35.5 L395.2,35.8 C398.7,36.2 398.9,35.3 399.1,18.2 C399.2,8.3 398.9,3.5 398.1,2.7 C396.1,0.7 392.1,3.9 388.1,10.7 C386.1,14.1 384.2,16.9 383.8,17 C383.3,17 383,13.9 383,10.1 C383,5.5 382.5,2.9 381.6,2.1 C380,0.8 377.4,1.5 376.6,3.5 C376.2,4.6 375.7,28.3 376,34.8 C376,35.4 376.9,36 378,36 C379.4,36 381.5,33.2 385.9,25.3 Z M242.2,20.5 C244.8,12.8 246.8,5.8 246.7,5 C246.6,4.2 245.6,3.5 244.5,3.5 C243.1,3.5 242.1,4.7 240.9,7.9 C238.2,15.4 234.9,15.4 232.7,7.9 C231.7,4.5 230.9,3.4 229.1,3.2 C227.8,3 226.4,3.2 225.9,3.7 C225,4.6 227.7,19.8 230.6,29.8 C232,34.7 232.3,35.1 234.8,34.8 C237.3,34.5 237.8,33.6 242.2,20.5 Z M194.4,26.8 C196,5.6 196,4.2 194.5,3 C192.3,1.2 189.7,2.2 188.9,5.1 C188.6,6.6 187.9,13.7 187.5,20.9 L186.8,34 L190.3,34 L193.8,34 L194.4,26.8 Z M89,32.3 C91.1,31.7 92.1,29.8 91.2,28.3 C90.4,27 11.7,25.3 8.1,26.5 C6.6,27 6,27.8 6.2,29.3 C6.5,31.5 6.9,31.5 28,32.1 C55.8,32.8 86.7,32.9 89,32.3 Z M170.8,31.7 C171.4,31 172.1,25.5 172.2,19.4 L172.5,8.5 L176.7,8.2 C180.9,7.9 183.1,5.5 181.5,3 C180.6,1.6 166.7,1.7 165.2,3.2 C164.4,4 164,8.6 164,17.5 C164,30.9 164.5,33 168.1,33 C169,33 170.2,32.4 170.8,31.7 Z M491.9,30.4 C496.8,29.8 498,29.4 497.8,28.1 C497.4,26.1 488.4,25.6 447.2,25.2 C421.5,24.9 417.9,25.1 417.4,26.4 C417.1,27.3 417,28.7 417.4,29.5 C417.9,30.8 422.6,31 451.8,31 C470.5,31 488.5,30.7 491.9,30.4 Z" id="Shape"></path>
                <path d="M235.7,20 C235.4,18.8 235.7,18 236.5,18 C237.3,18 237.6,18.8 237.3,20 C237,21.1 236.6,22 236.5,22 C236.4,22 236,21.1 235.7,20 Z" id="Path"></path>
            </g>
        </g>
    </g>
</svg>