<?xml version="1.0" encoding="UTF-8"?>
<svg width="533px" height="535px" viewBox="0 0 533 535" version="1.1" xmlns="http://www.w3.org/2000/svg" xmlns:xlink="http://www.w3.org/1999/xlink">
    <title>Untitled 8</title>
    <g id="Page-1" stroke="none" stroke-width="1" fill="none" fill-rule="evenodd">
        <g id="Logo_lettering_year" fill="#000000" fill-rule="nonzero">
            <path d="M126.28,0 L128.679,20.808 C134.193,24.638 135.639,32.19 134.798,37.365 C135.213,36.671 136.305,35.258 138.074,33.125 L138.478,32.639 C140.554,30.15 143.466,26.773 147.212,22.508 C144.667,26.177 142.056,30.041 139.347,34.168 C136.652,38.266 133.883,42.588 131.069,47.133 C131.583,46.739 132.122,46.372 132.69,46.039 C138.403,42.683 145.668,43.799 149.603,44.799 C150.278,44.086 150.904,43.495 151.529,42.952 L151.797,42.722 C152.11,42.456 152.424,42.2 152.746,41.944 L153.023,41.725 C155.681,39.636 158.937,37.384 166,30 L165.992491,30.0112168 C165.784659,30.3211228 161.258741,37.0350588 151.952,47.952 C150.98,51.745 148.365,59.297 142.318,62.846 C134.620449,67.3653034 123.609291,63.4553443 122.159625,62.9076191 L122.071665,62.8740462 C122.024369,62.8557887 122,62.846 122,62.846 C122,62.846 122.052,62.591 122.167,62.139 C118.717,68.794 116.905,72.386 116.728,72.916 C118.862,71.569 128.832,65.243 143.906,75.375 C153.145,74.294 171.261,69.395 160.729,47.237 C160.729,47.237 181.116,71.075 144.748,81.631 C130.087,105.915 112.773,101.287 104.689,96.534 C102.956,99.996 99.683,106.209 98.074,110.009 C99.451,109.036 100.943,108.197 102.558,107.552 C109.682,104.703 117.648,106.177 123.288,108.03 C163.997,107.732 164.652,83.002 164.441,78.553 L164.437,78.496 L164.457,78.739 C166.321,106.886 138.346,113.727 129.109,115.847 L128.832,115.911 C126.323,121.328 121.206,129.893 112.773,133.267 C104.568,136.549 95.267,134.096 89.674,131.934 C88.476,135.422 81.567,152.086 81.237,160.958 C81.64796,160.48676 82.242066,159.405874 82.873908,158.2635 L83.221417,157.637584 C83.920426,156.386734 84.63288,155.18132 85.17,154.733 C119.161,118.887 126.796,177.805 165.996,114.578 C158.392,131.748 149.509,143.869 139.347,150.941 C120.792,209.373 85.17,183.661 77.276,183.661 C73.601,209.847 78.124,229.411 78.777,232.424 C78.744,232.457 78.744,232.457 78.777,232.49 C78.784,232.523 78.793,232.555 78.8,232.588 C87.037,201.855 113.452,196.838 128.832,196.838 C138.208,191.525 146.137,180.485 152.617,163.719 C151.485,169.057 150.75,172.722 149.751,176.206 L149.577,176.801 C147.722,183.043 144.894,188.972 137.25,203.284 C127.76,246.466 112.645,258.11 86.975,258.991 C86.985,259.014 86.991,259.033 87.001,259.053 C90.1186,272.38956 93.334696,275.331163 95.72102,278.557928 L95.91794,278.827714 C96.762763,280.001631 97.49602,281.25142 98.074,283.08 C101.969,259.464 127.77,255.903 128.801,255.77 L128.832,255.766 C120.513,272.207 120.513,293.056 128.232,305.252 C135.449,315.65 151.142,327.206 164.39,336.202 C165.848,337.033 167.251,337.852 168.638,338.675 L169.469,339.169 L170.711,339.913 C170.849,339.995 170.987,340.078 171.125,340.162 L171.954,340.662 C178.876,344.845 186.131,349.399 198.407,356.167 C213.039,365.108 223.04,373.316 229.202,379.43 L229.736,379.964 C232.356,382.606 234.232,384.833 235.435,386.527 C248.457,404.876 248.978,428.559 249,522.842 L249,535 L235.969,535 C235.969,535 235.977,534.915 235.993,534.747 L236.007,534.583 C236.259,531.783 237.653,514.992 237.653,487.583 C237.653,486.434 237.649,485.279 237.641,484.123 L237.63,482.734 C237.628,482.503 237.625,482.271 237.623,482.04 L237.606,480.651 L237.587,479.264 C237.57444,478.45072 237.560296,477.638827 237.544715,476.829512 L237.520284,475.617621 C237.121214,456.666274 235.969,439.467 235.969,439.467 C209.663,465.91 159.528,452.219 150.446,419.446 L83.868,412.139 L150.215,409.787 C177.365,387.114 185.379,383.434 220.467,387.114 C216.741,380.856 204.507,372.878 194.406,368.001 C162.264,395.186 122.54,397.894 86.283,356.167 L23.432,341.853 L86.808,346.963 C88.679,346.069 90.505,345.174 92.29,344.284 L93.809,343.524 C108.656,336.066 120.664,329.239 132.27,328.216 C123.384,323.477 125.517,322.463 117.909,319.386 C85.108,337.318 44.608,322.857 44.608,274.208 L0,237.861 L47.588,267.294 C61.2,267.795 72.805,269.216 82.458,272.207 C77.276,265.846 73.608,248.287 73.601,248.261 C44.109,248.261 31.16,220.682 33.526,177.805 L11.246,130.1 L37.971,173.92 C51.684,182.783 62.048,191.26 68.722,200.621 C68.726,200.588 68.726,200.555 68.726,200.523 C68.761,199.617 69.136,195.456 69.583,191.101 L69.668,190.283 L69.754,189.464 C70.085,186.334 70.435,183.3 70.706,181.5 C48.893,170.573 44.876,150.456 51.948,115.911 C45.786,97.686 45.786,77.677 51.948,55.884 C48.373,80.045 50.228,99.61 57.512,114.578 C68.484,118.784 76.072,134.2 79.609,144.354 L79.64,144.263 C79.906,143.486 81.61,138.737 83.315,133.995 L83.591,133.227 C85.084083,129.078313 86.518069,125.100352 86.92388,123.980358 L86.975815,123.837171 C87.01279,123.735369 87.033771,123.678021 87.037,123.67 C69.682,117.221 66.144,98.08 72.214,72.427 C69.886,59.941 69.886,47.187 72.214,34.168 C71.209,51.537 72.284,63.712 75.439,70.692 C87.951,83.439 94.993,94.097 94.716,105.915 C94.815,105.70425 96.684188,101.89125 99.065953,97.1165156 L99.386449,96.474417 C100.086959,95.0718597 100.825583,93.5988333 101.572,92.119 L101.97,91.331 C104.959,85.419 107.986,79.58 109.121,77.871 C96.671,72.427 96.671,58.177 100.913,40.264 C99.689,36.778 99.689,27.365 100.913,12.024 C100.913,26.625 101.73,35.598 103.364,38.944 C111.872,47.607 117.045,55.006 117.909,62.896 C118.727,61.56 120.315,58.713 122.053,55.753 L122.509,54.979 L122.911816,54.3021199 C124.931414,50.9245234 127.01325,47.6951875 128.232,46.693 C119.939,39.592 120.458,30.398 126.796,20.762" id="left"></path>
            <path d="M406.72,0 L406.204,20.762 C412.542,30.398 413.061,39.592 404.768,46.693 C406.068,47.762 408.35,51.365 410.491,54.979 L410.491,54.979 L410.947,55.753 C412.685,58.713 414.273,61.56 415.091,62.896 C415.955,55.006 421.128,47.607 429.636,38.944 C431.27,35.598 432.087,26.625 432.087,12.024 C433.311,27.365 433.311,36.778 432.087,40.264 C436.329,58.177 436.329,72.427 423.879,77.871 C424.964652,79.5056957 427.781359,84.9190681 430.640074,90.560617 L431.03,91.331 L431.428,92.119 C432.174417,93.5988333 432.913041,95.0718597 433.613551,96.474417 L433.934047,97.1165156 C436.315812,101.89125 438.185,105.70425 438.284,105.915 C438.007,94.097 445.049,83.439 457.561,70.692 C460.716,63.712 461.791,51.537 460.786,34.168 C463.114,47.187 463.114,59.941 460.786,72.427 C466.856,98.08 463.318,117.221 445.963,123.67 L445.963,123.67 L445.975283,123.70299 C445.985573,123.731012 446.002,123.77609 446.024185,123.837171 L446.07612,123.980358 C446.481931,125.100352 447.915917,129.078313 449.409,133.227 L449.409,133.227 L449.685,133.995 C451.39,138.737 453.094,143.486 453.36,144.263 L453.36,144.263 L453.391,144.354 C456.928,134.2 464.516,118.784 475.488,114.578 C482.772,99.61 484.627,80.045 481.052,55.884 C487.214,77.677 487.214,97.686 481.052,115.911 C488.124,150.456 484.107,170.573 462.294,181.5 C462.564,183.3 462.915,186.334 463.246,189.464 L463.246,189.464 L463.332,190.283 L463.417,191.101 C463.864,195.456 464.239,199.617 464.274,200.523 C464.274,200.555 464.274,200.588 464.278,200.621 C470.952,191.26 481.316,182.783 495.029,173.92 L495.029,173.92 L521.754,130.1 L499.474,177.805 C501.84,220.682 488.891,248.261 459.399,248.261 C459.392,248.287 455.724,265.846 450.542,272.207 C460.195,269.216 471.8,267.795 485.412,267.294 L485.412,267.294 L533,237.861 L488.392,274.208 C488.392,322.857 447.892,337.318 415.091,319.386 C407.483,322.463 409.616,323.477 400.73,328.216 C412.336,329.239 424.344,336.066 439.191,343.524 L439.191,343.524 L440.71,344.284 C442.495,345.174 444.321,346.069 446.192,346.963 L446.192,346.963 L509.568,341.853 L446.717,356.167 C410.46,397.894 370.736,395.186 338.594,368.001 C328.493,372.878 316.259,380.856 312.533,387.114 C347.621,383.434 355.635,387.114 382.785,409.787 L382.785,409.787 L449.132,412.139 L382.554,419.446 C373.472,452.219 323.337,465.91 297.031,439.467 C297.031,439.467 295.878786,456.666274 295.479716,475.617621 L295.455285,476.829512 C295.439704,477.638827 295.42556,478.45072 295.413,479.264 L295.413,479.264 L295.394,480.651 L295.377,482.04 C295.375,482.271 295.372,482.503 295.37,482.734 L295.37,482.734 L295.359,484.123 C295.351,485.279 295.347,486.434 295.347,487.583 C295.347,514.992 296.741,531.783 296.993,534.583 L296.993,534.583 L297.007,534.747 C297.0166,534.8478 297.02332,534.91872 297.02716,534.959328 L297.031,535 L284,535 L284,531.89 L284,522.842 C284.022,428.559 284.543,404.876 297.565,386.527 C298.767,384.833 300.644,382.606 303.264,379.964 L303.264,379.964 L303.798,379.43 C309.96,373.316 319.961,365.108 334.593,356.167 C346.869,349.399 354.124,344.845 361.046,340.662 L361.046,340.662 L361.875,340.162 C362.013,340.078 362.151,339.995 362.289,339.913 L363.531,339.169 L364.362,338.675 C365.749,337.852 367.152,337.033 368.61,336.202 C381.858,327.206 397.551,315.65 404.768,305.252 C412.487,293.056 412.487,272.207 404.168,255.766 L404.168,255.766 L404.199,255.77 C405.23,255.903 431.031,259.464 434.926,283.08 C435.50398,281.25142 436.237237,280.001631 437.08206,278.827714 L437.27898,278.557928 C439.665304,275.331163 442.8814,272.38956 445.999,259.053 C446.009,259.033 446.015,259.014 446.025,258.991 C420.355,258.11 405.24,246.466 395.75,203.284 C388.106,188.972 385.278,183.043 383.423,176.801 L383.423,176.801 L383.249,176.206 C382.25,172.722 381.515,169.057 380.383,163.719 C386.863,180.485 394.792,191.525 404.168,196.838 C419.548,196.838 445.963,201.855 454.2,232.588 C454.207,232.555 454.216,232.523 454.223,232.49 C454.256,232.457 454.256,232.457 454.223,232.424 C454.876,229.411 459.399,209.847 455.724,183.661 C447.83,183.661 412.208,209.373 393.653,150.941 C383.491,143.869 374.608,131.748 367.004,114.578 C406.204,177.805 413.839,118.887 447.83,154.733 C448.36712,155.18132 449.079574,156.386734 449.778583,157.637584 L450.126092,158.2635 C450.757934,159.405874 451.35204,160.48676 451.763,160.958 C451.433,152.086 444.524,135.422 443.326,131.934 C437.733,134.096 428.432,136.549 420.227,133.267 C411.794,129.893 406.677,121.328 404.168,115.911 L404.168,115.911 L403.891,115.847 C394.654,113.727 366.679,106.886 368.543,78.739 L368.543,78.739 L368.563,78.496 L368.559,78.553 C368.35011,82.95751 368.989987,107.239428 408.502707,108.013775 L409.712,108.03 C415.352,106.177 423.318,104.703 430.442,107.552 C432.057,108.197 433.549,109.036 434.926,110.009 C433.317,106.209 430.044,99.996 428.311,96.534 C420.227,101.287 402.913,105.915 388.252,81.631 C351.884,71.075 372.271,47.237 372.271,47.237 C361.739,69.395 379.855,74.294 389.094,75.375 C404.168,65.243 414.138,71.569 416.272,72.916 C416.095,72.386 414.283,68.794 410.833,62.139 C410.948,62.591 411,62.846 411,62.846 C411,62.846 410.975631,62.8557887 410.928335,62.8740462 L410.840375,62.9076191 C409.390709,63.4553443 398.379551,67.3653034 390.682,62.846 C384.635,59.297 382.02,51.745 381.048,47.952 C374.466048,40.231012 370.275374,34.6127072 368.311502,31.8740707 L368.11628,31.6010676 C367.398325,30.5941772 367.029651,30.0443373 367,30 C374.063,37.384 377.319,39.636 379.976,41.725 L379.976,41.725 L380.254,41.944 C380.576,42.2 380.89,42.456 381.203,42.722 L381.203,42.722 L381.471,42.952 C382.096,43.495 382.722,44.086 383.397,44.799 C387.332,43.799 394.597,42.683 400.31,46.039 C400.878,46.372 401.417,46.739 401.93,47.133 C399.117,42.588 396.348,38.266 393.653,34.168 C390.944,30.041 388.333,26.177 385.788,22.508 C389.534,26.773 392.446,30.15 394.522,32.639 L394.522,32.639 L394.926,33.125 C396.694,35.258 397.786,36.671 398.202,37.365 C397.361,32.19 398.807,24.638 404.321,20.808 L404.321,20.808" id="right"></path>
        </g>
    </g>
</svg>