<?xml version="1.0" encoding="UTF-8"?>
<svg width="2011px" height="475px" viewBox="0 0 2011 475" version="1.1" xmlns="http://www.w3.org/2000/svg" xmlns:xlink="http://www.w3.org/1999/xlink">
    <title>stuntpig</title>
    <g id="Page-1" stroke="none" stroke-width="1" fill="none" fill-rule="evenodd">
        <g id="stuntpig" fill="#000000" fill-rule="nonzero">
            <g id="Group" transform="translate(1005.500000, 237.500000) scale(-1, 1) rotate(-180.000000) translate(-1005.500000, -237.500000) translate(-0.000000, -0.000000)">
                <path d="M325.3,321.8 C325.6,170.5 325.6,168.4 327.7,159.5 C331.6,142.6 337.3,130.7 346.6,120.1 C362.9,101.6 386.3,91.9 421.2,89.1 C432,88.2 436.8,88.3 452.2,90 C462.3,91.1 472.2,92.2 474.3,92.6 L478,93.2 L478,124.1 L478,155 L474.8,154.2 C473,153.9 463.6,153.5 454,153.5 C437.7,153.5 436.1,153.7 431.2,155.9 C420.1,160.9 414.7,170.5 412.9,188.4 C412.5,193.4 412,259.9 412,336.3 L412,475 L368.5,475 L324.9,475 L325.3,321.8 Z" id="Path"></path>
                <path d="M1146,326.2 C1146,230.1 1146.4,174.5 1147,169.2 C1152.3,127.2 1177.2,100.7 1219.7,92.1 C1238.1,88.3 1252.6,87.8 1273.2,90 C1283.3,91.1 1293.2,92.2 1295.3,92.6 L1299,93.2 L1299,124.1 L1299,155 L1295.8,154.2 C1294,153.9 1284.6,153.5 1275,153.5 C1258.7,153.5 1257.1,153.7 1252.2,155.9 C1244.9,159.2 1238.6,166.4 1235.8,174.8 L1233.5,181.5 L1233.2,328.3 L1232.9,475 L1189.5,475 L1146,475 L1146,326.2 Z" id="Path"></path>
                <polygon id="Path" points="1626 452 1626 429 1670.5 429 1715 429 1715 452 1715 475 1670.5 475 1626 475"></polygon>
                <path d="M104,395.4 C85.8,393.4 68.7,388.9 55.1,382.3 C44.6,377.3 42.8,376 34,367.2 C23.4,356.4 18.9,348.9 14.9,334.5 C11.8,323.6 11.5,297.8 14.4,288.5 C18.9,273.9 26.6,262.8 39.2,252.7 C57.1,238.2 80.1,227.3 121.5,213.5 C152.2,203.3 170.2,191.1 173,178.6 C174.1,173.8 172.4,166.9 169.4,163.7 C164.3,158.2 152.5,154 142.1,154 C139.2,154 136.8,153.4 136.1,152.6 C135.3,151.7 135,142.3 135.2,120.4 L135.5,89.5 L140.9,89.2 C147.5,88.8 169.1,91.4 181.8,94 C227.1,103.5 252.3,129.4 254.7,169.2 C257,206.4 237.8,232.1 190.5,255.5 C181.2,260.1 163.4,268 151,273 C109.6,289.8 97,297.5 93.9,307.8 C91.1,317.4 98.4,327.4 110.5,330.4 C114,331.3 118,332 119.4,332 C125.3,332 125,330.4 125,365.1 L125,397 L120.8,396.9 C118.4,396.8 110.9,396.2 104,395.4 Z" id="Path"></path>
                <path d="M137.8,395.5 C137.3,395 137,380.8 137,363.9 L137,333.1 L141.3,332 C153.1,328.9 156.5,327.3 162.1,322.3 C167.2,317.7 170.5,311.2 172,302.9 C172.7,299.4 173.4,295.9 173.6,295.3 C173.9,294.3 182.5,294 212.5,294 L251,294 L251,299.5 C251,306.7 248.5,322.3 246,330.4 C235.4,364.5 211.3,384.5 170.5,392.9 C159.8,395.1 139,396.7 137.8,395.5 Z" id="Path"></path>
                <path d="M960,394.6 C944.8,391.9 924.9,384 921.3,379.2 C919.8,377.3 919.4,330.5 920.9,329.6 C921.3,329.3 924.3,330.4 927.3,332.1 C932.5,334.9 933.7,335.1 942.3,335.1 C960.3,335 969.7,328.9 975.4,313.5 C976.2,311.4 976.6,278.4 977,204 L977.5,97.5 L1023.3,97.2 L1069.1,97 L1068.7,207.2 C1068.4,306.3 1068.2,318.4 1066.7,326 C1064,339.4 1062,345.9 1058,354.5 C1048.6,374.9 1032.7,387.6 1010,393 C998.1,395.9 971.8,396.7 960,394.6 Z" id="Path"></path>
                <path d="M1486,391.9 C1472.3,390.2 1457.3,385.9 1446.6,380.6 L1436.5,375.5 L1436.2,350.7 L1436,325.9 L1439.8,327.9 C1447.5,331.8 1454.9,333.3 1464,332.7 C1477.4,331.8 1485.4,328 1489,321 C1492.7,313.7 1493.2,304.3 1492.8,239.4 C1492.4,177.6 1492.4,177.5 1490.1,170.8 C1485.2,156.8 1474,150.4 1455.6,151.2 C1447.1,151.5 1445.7,151.9 1441.1,154.8 L1436,157.9 L1436,132.2 L1436,106.4 L1441.6,103 C1448.5,98.8 1462.9,93.7 1473,91.9 C1477.7,91 1487.4,90.6 1499,90.6 C1520.7,90.7 1527.9,92.1 1542.6,99.5 C1566.7,111.6 1579.4,136.2 1583,177.5 C1583.8,186.1 1584,211.4 1583.8,252.5 C1583.4,311.9 1583.3,315 1581.1,325.4 C1573.3,363.5 1555.7,383.8 1524.9,390.6 C1516,392.5 1496.3,393.2 1486,391.9 Z" id="Path"></path>
                <path d="M1828.5,391.9 C1817.1,390.4 1810,388.3 1800.4,383.5 C1779.6,373.3 1767.5,352.9 1763,320.5 C1762.2,315.1 1762,292.3 1762.2,250 C1762.6,190.5 1762.7,187.1 1764.8,178.1 C1769,159.4 1777.4,142.6 1787.8,131.7 C1796.8,122.3 1813.6,113.8 1829.8,110.3 C1841,107.9 1865.2,107.9 1874.5,110.3 C1885.5,113.2 1895.2,118.5 1903,125.7 L1910,132.2 L1910,158.2 L1910,184.2 L1905.5,179.2 C1899.3,172.4 1892.8,169.5 1883,169.6 C1867.9,169.6 1858.7,177.4 1854.5,193.7 C1853.3,198.4 1853,209 1853,256 C1853,290.8 1853.4,313.9 1854,316.1 C1855.7,322.2 1859.2,326.3 1865.5,329.5 C1871,332.3 1872,332.5 1882.9,332.5 C1894.9,332.5 1894.6,332.6 1908.8,326.3 C1909.8,325.9 1910,330.8 1909.8,350.5 L1909.5,375.3 L1903.5,378.7 C1886.5,388.2 1849.3,394.7 1828.5,391.9 Z" id="Path"></path>
                <polygon id="Path" points="279 355.5 279 322 296.5 322 314 322 314 355.5 314 389 296.5 389 279 389"></polygon>
                <polygon id="Path" points="426 355.5 426 322 444.5 322 463 322 463 355.5 463 389 444.5 389 426 389"></polygon>
                <path d="M509,284.2 C509,195.9 509.2,177.6 510.5,167.8 C515.1,132.5 526.8,112.4 549.6,100.3 C575.8,86.4 619.4,86.8 648.5,101.2 C658.7,106.2 658,103.9 658,132.2 C658,145.8 657.8,157 657.6,157 C657.4,157 654.8,155.8 651.8,154.3 C646.9,151.7 645.6,151.5 634.5,151.5 C623.8,151.5 622,151.8 617.6,154 C610.3,157.6 605.7,162.8 602.9,170.7 L600.5,177.5 L600.2,283.3 L599.9,389 L554.5,389 L509,389 L509,284.2 Z" id="Path"></path>
                <polygon id="Path" points="673 243 673 97 717.5 97 762 97 762 243 762 389 717.5 389 673 389"></polygon>
                <polygon id="Path" points="816 243 816 97 860.5 97 905 97 905 243 905 389 860.5 389 816 389"></polygon>
                <polygon id="Path" points="1100 355.5 1100 322 1117.5 322 1135 322 1135 355.5 1135 389 1117.5 389 1100 389"></polygon>
                <polygon id="Path" points="1247 355.5 1247 322 1265.5 322 1284 322 1284 355.5 1284 389 1265.5 389 1247 389"></polygon>
                <polygon id="Path" points="1331 194.5 1331 0 1375.5 0 1420 0 1420 194.5 1420 389 1375.5 389 1331 389"></polygon>
                <polygon id="Path" points="1626 243 1626 97 1669.5 97 1713 97 1713 243 1713 389 1669.5 389 1626 389"></polygon>
                <path d="M1928.8,245.3 C1928.5,111.2 1928.4,101.1 1926.7,95.6 C1921.6,78.6 1912.1,69.9 1893.1,64.8 C1886.7,63.1 1882.2,62.7 1865,62.6 C1853.7,62.6 1841.9,62.9 1838.8,63.3 L1833,64.1 L1833,34.6 C1833,18.3 1833.3,5 1833.8,5 C1834.2,5 1840.8,4.1 1848.5,3.1 C1869.7,0.2 1878.2,-0.2 1893,1 C1931.3,4.1 1956.1,13.6 1975.9,33 C1989.4,46.2 1996.4,57.9 2003,78.1 C2010.6,101.7 2011,109.7 2011,260.8 L2011,389 L1970,389 L1929.1,389 L1928.8,245.3 Z" id="Path"></path>
                <path d="M0.7,202.3 C-1.2,200.5 1.3,179.1 5,164.5 C7.7,154.3 15.4,138.4 22.1,129.6 C33.3,114.8 54.3,101.5 75.5,95.7 C87.5,92.4 118.3,88.1 121.5,89.3 C122.8,89.9 123,93.6 122.8,122.2 L122.5,154.4 L118.5,155.3 C106.1,157.8 98.4,161.7 92.1,168.5 C86.6,174.5 83.3,182.2 81.8,193.3 L80.5,202.5 L40.9,202.8 C19.2,202.9 1.1,202.7 0.7,202.3 Z" id="Path"></path>
            </g>
        </g>
    </g>
</svg>